<svg xmlns="http://www.w3.org/2000/svg" viewBox="0 0 500 500"><g id="freepik--background-simple--inject-1006"><path d="M157.18,303.49c-69.48-33.21-73.78-167.13,12-182.23,43.44-7.65,74.48,40,119.68,41.73,33.06,1.31,67.37-40.17,101.13-19.54,69.09,42.23-26.87,95-45.3,119.11-24.8,32.48-21.41,67-61.14,78.88C246.29,352.61,189.23,318.81,157.18,303.49Z" style="fill:#407BFF"></path><path d="M157.18,303.49c-69.48-33.21-73.78-167.13,12-182.23,43.44-7.65,74.48,40,119.68,41.73,33.06,1.31,67.37-40.17,101.13-19.54,69.09,42.23-26.87,95-45.3,119.11-24.8,32.48-21.41,67-61.14,78.88C246.29,352.61,189.23,318.81,157.18,303.49Z" style="fill:#fff;opacity:0.9"></path></g><g id="freepik--Shadow--inject-1006"><ellipse cx="250" cy="416.24" rx="193.89" ry="11.32" style="fill:#f5f5f5"></ellipse></g><g id="freepik--Charts--inject-1006"><path d="M202,211.52a61.31,61.31,0,0,1,38.68-74.33l3.77,11.94A48.84,48.84,0,0,0,214,207.75Z" style="fill:#407BFF"></path><path d="M232.59,249.24a60.19,60.19,0,0,1-13-9.06,61.34,61.34,0,0,1-16.41-24.85l11.94-3.77a48.76,48.76,0,0,0,80.44,17.83l9.23,8.46A61.48,61.48,0,0,1,232.59,249.24Z" style="fill:#407BFF"></path><path d="M232.59,249.24a60.19,60.19,0,0,1-13-9.06,61.34,61.34,0,0,1-16.41-24.85l11.94-3.77a48.76,48.76,0,0,0,80.44,17.83l9.23,8.46A61.48,61.48,0,0,1,232.59,249.24Z" style="fill:#fff;opacity:0.7000000000000001"></path><path d="M298.31,226.44a48.76,48.76,0,0,0-50-78.51l-3.77-12a61.31,61.31,0,0,1,75,40.58,61.48,61.48,0,0,1-11.94,58.34Z" style="fill:#407BFF"></path><path d="M298.31,226.44a48.76,48.76,0,0,0-50-78.51l-3.77-12a61.31,61.31,0,0,1,75,40.58,61.48,61.48,0,0,1-11.94,58.34Z" style="opacity:0.30000000000000004"></path><path d="M272.45,180.2a15.22,15.22,0,0,0-21.53,21.52l10.76,10.76,10.77-10.76A15.22,15.22,0,0,0,272.45,180.2Z" style="fill:#407BFF"></path><path d="M272.45,180.2a15.22,15.22,0,0,0-21.53,21.52l10.76,10.76,10.77-10.76A15.22,15.22,0,0,0,272.45,180.2Z" style="opacity:0.30000000000000004"></path><rect x="261.09" y="215.67" width="1.2" height="4.8" style="fill:#407BFF"></rect><rect x="261.09" y="215.67" width="1.2" height="4.8" style="opacity:0.30000000000000004"></rect><rect x="261.09" y="224.18" width="1.2" height="4.8" style="fill:#407BFF"></rect><rect x="261.09" y="224.18" width="1.2" height="4.8" style="opacity:0.30000000000000004"></rect><rect x="179.42" y="263.02" width="40.73" height="147.48" style="fill:#407BFF"></rect><rect x="179.42" y="263.02" width="40.73" height="147.48" style="fill:#fff;opacity:0.7000000000000001"></rect><rect x="220.15" y="263.02" width="19.55" height="147.48" style="fill:#407BFF"></rect><rect x="220.15" y="263.02" width="19.55" height="147.48" style="fill:#fff;opacity:0.5"></rect><rect x="294.42" y="317.3" width="1.04" height="22.96" style="fill:#263238"></rect><rect x="294.42" y="303.8" width="1.04" height="9.23" style="fill:#263238"></rect><rect x="283.66" y="354.5" width="40.73" height="56" style="fill:#407BFF"></rect><rect x="283.66" y="354.5" width="40.73" height="56" style="opacity:0.5"></rect><rect x="324.39" y="354.5" width="19.55" height="56" style="fill:#407BFF"></rect><rect x="324.39" y="354.5" width="19.55" height="56" style="opacity:0.6000000000000001"></rect><rect x="231.54" y="231.84" width="40.73" height="178.66" style="fill:#407BFF"></rect><rect x="231.54" y="231.84" width="40.73" height="178.66" style="opacity:0.7000000000000001"></rect><rect x="272.27" y="231.84" width="19.55" height="178.66" style="fill:#407BFF"></rect><rect x="272.27" y="231.84" width="19.55" height="178.66" style="opacity:0.8"></rect></g><g id="freepik--character-2--inject-1006"><path d="M352.23,190.63c-1.4,11.06-3.16,22.15-4.73,33.12a40.51,40.51,0,0,1-.87,4.76,31.84,31.84,0,0,1-1.72,4.69,40,40,0,0,1-4.94,8,55.23,55.23,0,0,1-6.14,6.61c-1.08,1-2.23,2-3.39,2.87s-2.31,1.77-3.64,2.64l-3.55-4.43c.83-.92,1.77-2,2.62-3s1.69-2.08,2.51-3.14a60.38,60.38,0,0,0,4.39-6.51,35.83,35.83,0,0,0,3.13-6.71,21.32,21.32,0,0,0,.85-3.32,34.5,34.5,0,0,0,.34-3.57c.37-5.68.93-11.3,1.55-16.91S340,194.58,340.88,189Z" style="fill:#e58a7b"></path><path d="M354.72,186.83c2.55,6.77-10.36,26.7-10.36,26.7l-15.13-8.21A91.65,91.65,0,0,1,338,187.61C343.32,179.63,351.93,179.4,354.72,186.83Z" style="fill:#407BFF"></path><path d="M354.72,186.83c2.55,6.77-10.36,26.7-10.36,26.7l-15.13-8.21A91.65,91.65,0,0,1,338,187.61C343.32,179.63,351.93,179.4,354.72,186.83Z" style="opacity:0.2"></path><path d="M345.74,181.65s-8.93,22.85-.45,65.39h40.47c.28-6.21-3.63-36.51,2.36-65.77a104.75,104.75,0,0,0-13.54-1.72,149.34,149.34,0,0,0-17.2,0A75.81,75.81,0,0,0,345.74,181.65Z" style="fill:#407BFF"></path><path d="M345.74,181.65s-8.93,22.85-.45,65.39h40.47c.28-6.21-3.63-36.51,2.36-65.77a104.75,104.75,0,0,0-13.54-1.72,149.34,149.34,0,0,0-17.2,0A75.81,75.81,0,0,0,345.74,181.65Z" style="opacity:0.2"></path><polygon points="351.11 406.92 343.55 406.92 341.53 389.4 349.1 389.4 351.11 406.92" style="fill:#e58a7b"></polygon><polygon points="404.35 406.92 396.79 406.92 390.89 389.4 398.46 389.4 404.35 406.92" style="fill:#e58a7b"></polygon><path d="M395.78,406H405a.65.65,0,0,1,.64.52l1.5,6.73a1.12,1.12,0,0,1-1.11,1.34c-3-.05-5.13-.22-8.87-.22-2.3,0-7,.24-10.21.24s-3.59-3.14-2.29-3.43c5.83-1.27,8-3,9.89-4.71A1.83,1.83,0,0,1,395.78,406Z" style="fill:#263238"></path><path d="M343.6,406h8.26a.67.67,0,0,1,.65.52l1.49,6.73a1.1,1.1,0,0,1-1.09,1.34c-3-.05-7.29-.22-11-.22-4.38,0-8.16.24-13.3.24-3.11,0-4-3.14-2.67-3.43,5.92-1.29,10.75-1.43,15.87-4.59A3.51,3.51,0,0,1,343.6,406Z" style="fill:#263238"></path><path d="M326,246l-6.34,5.3,8.33,4.89a7.27,7.27,0,0,0,2.37-8.29Z" style="fill:#e58a7b"></path><polygon points="341.54 389.41 342.57 398.44 350.14 398.44 349.1 389.41 341.54 389.41" style="fill:#cf6f64"></polygon><polygon points="398.46 389.41 390.89 389.41 393.93 398.44 401.5 398.44 398.46 389.41" style="fill:#cf6f64"></polygon><path d="M379.88,195.25c1.32-6.68,3.89-5.52,6.33-2.23a211.21,211.21,0,0,0-1.44,26.68C383.11,216.87,377.67,206.44,379.88,195.25Z" style="opacity:0.2"></path><path d="M372.87,160.19c-1.08,5.53-2.16,15.67,1.71,19.36,0,0-1.51,5.62-11.8,5.62-11.31,0-5.4-5.61-5.4-5.61,6.17-1.48,6-6.06,4.93-10.36Z" style="fill:#e58a7b"></path><path d="M368.57,163.87l-6.25,5.33a17.41,17.41,0,0,1,.53,3.05c2.36-.34,5.6-2.93,5.85-5.4A8.36,8.36,0,0,0,368.57,163.87Z" style="fill:#cf6f64"></path><path d="M355.28,143.16c-3.72,1.58-5.74,12-1,14.41S362.33,140.18,355.28,143.16Z" style="fill:#263238"></path><path d="M373.53,151.86c-.46,7.49-.35,11.9-4.13,15.75-5.69,5.78-14.95,2.35-16.73-5.13-1.61-6.73-.59-17.86,6.75-20.84A10.24,10.24,0,0,1,373.53,151.86Z" style="fill:#e58a7b"></path><path d="M350.42,138.46c4.53-6.87,5.24-3.56,5.17-.29,4-3.78,11.39-8.6,15-4.2a3.05,3.05,0,0,1,.51,3.45c4.65-1.24,9.34-1.59,8.49,3.43-.75,4.44-3.92,6.07-8.36,6.1C363.27,148.05,344,148.16,350.42,138.46Z" style="fill:#263238"></path><path d="M373,159.2c-4,1.63-12.05-13.06.06-14.79S379.41,156.57,373,159.2Z" style="fill:#263238"></path><path d="M376.92,160.12a7.19,7.19,0,0,1-4.45,3.15c-2.44.54-3.53-1.68-2.73-3.92.72-2,2.85-4.71,5.25-4.25A3.21,3.21,0,0,1,376.92,160.12Z" style="fill:#e58a7b"></path><path d="M380.87,146.68a5,5,0,0,0-4.49-1.6S380.29,142,380.87,146.68Z" style="fill:#263238"></path><path d="M345.29,247S324,301.1,324.78,324.18c.85,24,15,72.51,15,72.51h12.82s-5.25-47.12-4.68-70.68c.62-25.7,24-79,24-79Z" style="fill:#407BFF"></path><path d="M362.29,264.91l1.23,2.79A367,367,0,0,0,351.84,303C351.49,289.36,354.31,274.32,362.29,264.91Z" style="opacity:0.2"></path><path d="M359.65,247s-4.31,55.32.4,77c5.16,23.72,30.32,72.67,30.32,72.67h13.86s-18.54-47-21.49-70.52c-3.19-25.49,3-79.13,3-79.13Z" style="fill:#407BFF"></path><path d="M362.17,154c0,.61-.33,1.11-.73,1.11s-.72-.5-.72-1.11.32-1.1.72-1.1S362.17,153.34,362.17,154Z" style="fill:#263238"></path><path d="M355.27,154c0,.61-.33,1.11-.72,1.11s-.73-.5-.73-1.11.33-1.1.73-1.1S355.27,153.34,355.27,154Z" style="fill:#263238"></path><path d="M357.46,154.26a21.88,21.88,0,0,1-2.91,5.21,3.5,3.5,0,0,0,2.91.55Z" style="fill:#df5753"></path><path d="M359.24,161.71a.18.18,0,0,1,0-.36,4.83,4.83,0,0,0,3.94-1.89.18.18,0,0,1,.25-.05.18.18,0,0,1,.05.24A5.08,5.08,0,0,1,359.24,161.71Z" style="fill:#263238"></path><path d="M364.24,151.73a.37.37,0,0,1-.28-.14,2.85,2.85,0,0,0-2.3-1.2.35.35,0,0,1-.38-.34.36.36,0,0,1,.33-.38,3.58,3.58,0,0,1,2.92,1.48.37.37,0,0,1-.07.51A.44.44,0,0,1,364.24,151.73Z" style="fill:#263238"></path><path d="M352.25,151.58a.45.45,0,0,1-.16,0,.35.35,0,0,1-.16-.48,3.53,3.53,0,0,1,2.57-2,.36.36,0,0,1,.09.71h0a2.86,2.86,0,0,0-2,1.62A.35.35,0,0,1,352.25,151.58Z" style="fill:#263238"></path><path d="M391,187.15c.65,1.4,1.2,2.65,1.72,4s1,2.63,1.53,4c1,2.66,1.83,5.36,2.59,8.11s1.39,5.56,1.91,8.42l.36,2.15.26,2.2c.1.73.14,1.48.2,2.23l.07,1.12,0,.28,0,.47c0,.35,0,.67,0,1a15.64,15.64,0,0,1-1.68,5.64,35.12,35.12,0,0,1-2.41,4.08,65.26,65.26,0,0,1-5.43,6.8,107.13,107.13,0,0,1-12.23,11.51l-4-4c3.27-4.18,6.53-8.5,9.5-12.79a72.57,72.57,0,0,0,4-6.48,23.7,23.7,0,0,0,1.45-3.11,6.12,6.12,0,0,0,.5-2.16s0,0,0,0,0,.06,0,0l0-.23-.14-.9c-.09-.61-.17-1.21-.31-1.82l-.36-1.83-.43-1.84c-.61-2.46-1.3-4.93-2.1-7.39s-1.65-4.91-2.56-7.36-1.91-4.92-2.84-7.18Z" style="fill:#e58a7b"></path><path d="M393.27,407.37a2.26,2.26,0,0,1-1.45-.39,1.08,1.08,0,0,1-.37-1,.56.56,0,0,1,.3-.5c.85-.43,3.28,1.07,3.56,1.24a.18.18,0,0,1,.08.18.19.19,0,0,1-.14.15A9.29,9.29,0,0,1,393.27,407.37Zm-1.12-1.57a.41.41,0,0,0-.23.05c-.05,0-.11.07-.12.21a.77.77,0,0,0,.25.65,3.67,3.67,0,0,0,2.68.13A7.26,7.26,0,0,0,392.15,405.8Z" style="fill:#407BFF"></path><path d="M395.21,407.1l-.08,0c-.79-.43-2.3-2.08-2.14-2.93a.59.59,0,0,1,.57-.47,1,1,0,0,1,.76.23c.88.72,1.06,2.9,1.07,3a.19.19,0,0,1-.08.16A.17.17,0,0,1,395.21,407.1ZM393.69,404h-.09c-.23,0-.25.13-.26.18-.09.5.87,1.75,1.65,2.34a4.34,4.34,0,0,0-.89-2.37A.63.63,0,0,0,393.69,404Z" style="fill:#407BFF"></path><path d="M340.45,407.37a2.83,2.83,0,0,1-1.83-.47,1,1,0,0,1-.34-.87.6.6,0,0,1,.29-.48c.93-.51,4,1,4.31,1.21a.18.18,0,0,1-.05.34A13.47,13.47,0,0,1,340.45,407.37Zm-1.37-1.57a.62.62,0,0,0-.33.07.19.19,0,0,0-.11.19.64.64,0,0,0,.21.57c.47.42,1.72.49,3.38.21A9.76,9.76,0,0,0,339.08,405.8Z" style="fill:#407BFF"></path><path d="M342.8,407.1a.12.12,0,0,1-.08,0c-.91-.41-2.72-2-2.58-2.9,0-.2.17-.45.67-.5a1.34,1.34,0,0,1,1,.31c1,.79,1.17,2.83,1.17,2.91a.18.18,0,0,1-.07.17A.19.19,0,0,1,342.8,407.1ZM341,404h-.11c-.32,0-.34.16-.35.2-.08.51,1.15,1.8,2.08,2.36a4.19,4.19,0,0,0-1-2.33A.93.93,0,0,0,341,404Z" style="fill:#407BFF"></path><path d="M375.64,244.05l-7.42,2,6.15,7.46s5.95-3.09,4.67-6.42Z" style="fill:#e58a7b"></path><polygon points="364.38 251.04 369.75 256.96 374.37 253.48 368.22 246.02 364.38 251.04" style="fill:#e58a7b"></polygon><polygon points="387.92 396.99 406.04 396.99 406.04 392.11 385.79 391.8 387.92 396.99" style="fill:#407BFF"></polygon><polygon points="387.92 396.99 406.04 396.99 406.04 392.11 385.79 391.8 387.92 396.99" style="opacity:0.4"></polygon><polygon points="336.87 396.99 354.99 396.99 354.99 392.06 334.74 391.8 336.87 396.99" style="fill:#407BFF"></polygon><polygon points="336.87 396.99 354.99 396.99 354.99 392.06 334.74 391.8 336.87 396.99" style="opacity:0.4"></polygon><path d="M389.7,181.76c6.75,2.6,13.5,26.54,13.5,26.54l-18,7.08S379.83,203,378,193.8C376.12,184.15,382.05,178.82,389.7,181.76Z" style="fill:#407BFF"></path><path d="M389.7,181.76c6.75,2.6,13.5,26.54,13.5,26.54l-18,7.08S379.83,203,378,193.8C376.12,184.15,382.05,178.82,389.7,181.76Z" style="opacity:0.2"></path><path d="M316.73,219.75a33.79,33.79,0,0,0,.55,20.37,33.65,33.65,0,0,0,10.94,15.52,33.92,33.92,0,0,0,45.51-50.1h0a33.53,33.53,0,0,0-14.92-9,34.06,34.06,0,0,0-30.8,6.17,27.3,27.3,0,0,0-2.22,2A33.81,33.81,0,0,0,316.73,219.75Z" style="fill:#407BFF"></path><path d="M316.73,219.75a33.79,33.79,0,0,0,.55,20.37,33.65,33.65,0,0,0,10.94,15.52,33.92,33.92,0,0,0,45.51-50.1h0a33.53,33.53,0,0,0-14.92-9,34.06,34.06,0,0,0-30.8,6.17,27.3,27.3,0,0,0-2.22,2A33.81,33.81,0,0,0,316.73,219.75Z" style="opacity:0.6000000000000001"></path><path d="M369.47,204.21l-24.4,23.55-9.35,32.6a33.91,33.91,0,0,0,33.75-56.15Z" style="fill:#407BFF"></path><path d="M369.47,204.21l-24.4,23.55-9.35,32.6a33.91,33.91,0,0,0,33.75-56.15Z" style="fill:#fff;opacity:0.9"></path><g style="opacity:0.7000000000000001"><path d="M345.07,227.76l24.4-23.56a33.91,33.91,0,0,0-57,14.22Z" style="fill:#407BFF"></path><path d="M345.07,227.76l24.4-23.56a33.91,33.91,0,0,0-57,14.22Z" style="fill:#fff;opacity:0.44"></path></g><polygon points="319.14 255.8 326.49 258.12 327.96 256.22 319.63 251.33 319.14 255.8" style="fill:#e58a7b"></polygon><path d="M345.07,227.76l-32.59-9.34a33.92,33.92,0,0,0,23.25,41.94Z" style="fill:#407BFF"></path><path d="M345.07,227.76l-32.59-9.34a33.92,33.92,0,0,0,23.25,41.94Z" style="opacity:0.6000000000000001"></path></g><g id="freepik--character-1--inject-1006"><path d="M158.24,181.86c-1.75,1.79-3.63,3.77-5.36,5.75s-3.47,4-5.1,6.07-3.17,4.2-4.65,6.35l-1.08,1.63-1,1.65c-.34.55-.66,1.11-1,1.67l-.83,1.53a8.59,8.59,0,0,0-.57,2.73,27.31,27.31,0,0,0,0,3.62,68.78,68.78,0,0,0,1,7.73c.45,2.62,1,5.25,1.65,7.86s1.29,5.27,2,7.85l-3.85,1.44A112.57,112.57,0,0,1,133.62,222a64.23,64.23,0,0,1-1.83-8.43,33.86,33.86,0,0,1-.32-4.59,14.79,14.79,0,0,1,.9-5.31c.24-.58.37-.82.53-1.16l.47-1c.31-.66.64-1.31,1-1.94l1-1.91,1.1-1.86a80.72,80.72,0,0,1,4.79-7.09c1.7-2.27,3.46-4.49,5.32-6.62s3.75-4.17,5.9-6.22Z" style="fill:#e58a7b"></path><path d="M142.24,234.67l6.84,2-4.55,4.62s-4.93-1.52-5.62-4.88Z" style="fill:#e58a7b"></path><polygon points="153.23 241.97 152.07 246.38 144.53 241.32 149.08 236.71 153.23 241.97" style="fill:#e58a7b"></polygon><polygon points="92 365.95 97.6 371.96 112.8 361.08 107.19 355.07 92 365.95" style="fill:#e58a7b"></polygon><polygon points="166.31 387.97 164.97 398.31 156.96 396.97 158.2 387.37 166.31 387.97" style="fill:#cf6f64"></polygon><polygon points="107.19 355.07 112.79 361.09 106.5 365.59 100.7 359.71 107.19 355.07" style="fill:#cf6f64"></polygon><path d="M180.34,223.37S164.5,276.42,156.76,307c-8.16,32.23-47.13,58.51-47.13,58.51l-8.32-8.27s26.05-22,34-52.07c16.06-61.07,8.34-74,21.14-86.42Z" style="fill:#407BFF"></path><path d="M180.34,223.37S164.5,276.42,156.76,307c-8.16,32.23-47.13,58.51-47.13,58.51l-8.32-8.27s26.05-22,34-52.07c16.06-61.07,8.34-74,21.14-86.42Z" style="opacity:0.6000000000000001"></path><path d="M100.05,371l-4.67-8a.65.65,0,0,0-.81-.29l-6.66,2.68a1.31,1.31,0,0,0-.56,1.86c1.68,2.75,2.62,4,4.68,7.51,1.27,2.16,2.9,5.44,4.64,8.42s4.71,1.46,4.24.07c-2.1-6.25-1-8.06-.59-10.84A2.15,2.15,0,0,0,100.05,371Z" style="fill:#263238"></path><polygon points="110.34 366.69 99.96 356.36 102.78 353.23 115.42 363.99 110.34 366.69" style="fill:#f5f5f5"></polygon><path d="M172.9,234.67c-10.39,8-11.09,38.56-10.85,52.36,5.29-19.29,11.54-40.76,15.19-53.17C176.24,233,174.81,233.19,172.9,234.67Z" style="opacity:0.30000000000000004"></path><path d="M101.73,375.36a1,1,0,0,1-.29-.05c-1-.3-1.69-2.11-2-3.16a.2.2,0,0,1,.06-.21.18.18,0,0,1,.21,0c.3.15,2.93,1.52,3,2.56a.66.66,0,0,1-.26.59A1.17,1.17,0,0,1,101.73,375.36Zm-1.79-2.87c.49,1.39,1.08,2.29,1.61,2.46a.71.71,0,0,0,.67-.18.25.25,0,0,0,.12-.25C102.28,374,101,373.07,99.94,372.49Z" style="fill:#407BFF"></path><path d="M102,372.83a5.84,5.84,0,0,1-2.5-.57.21.21,0,0,1,0-.34c.09,0,2.06-1.19,3.18-.82a1,1,0,0,1,.65.58.68.68,0,0,1-.13.84A1.87,1.87,0,0,1,102,372.83Zm-2-.75c.92.37,2.51.52,2.93.15.07-.06.13-.16,0-.39a.66.66,0,0,0-.42-.38A4.39,4.39,0,0,0,100,372.08Z" style="fill:#407BFF"></path><polygon points="155.8 405.98 163.91 406.58 166.31 387.96 158.21 387.36 155.8 405.98" style="fill:#e58a7b"></polygon><path d="M188.44,225s2,64.19-2.51,88.37c-4.72,25.15-19.09,82.35-19.09,82.35l-11.69-1.51s7.4-57.79,10.53-82.77c3.43-27.24-1.06-91.05-1.06-91.05Z" style="fill:#407BFF"></path><path d="M188.44,225s2,64.19-2.51,88.37c-4.72,25.15-19.09,82.35-19.09,82.35l-11.69-1.51s7.4-57.79,10.53-82.77c3.43-27.24-1.06-91.05-1.06-91.05Z" style="opacity:0.6000000000000001"></path><path d="M197.44,148.64c-.11.65.15,1.23.57,1.32s.85-.38,1-1-.15-1.23-.57-1.31S197.55,148,197.44,148.64Z" style="fill:#263238"></path><path d="M198.2,147.63l1.63-.15S198.83,148.54,198.2,147.63Z" style="fill:#263238"></path><path d="M197.88,149.37a17.9,17.9,0,0,0,1.63,4.55,2.86,2.86,0,0,1-2.38,0Z" style="fill:#df5753"></path><path d="M199,146a.38.38,0,0,1-.35-.23,3.22,3.22,0,0,0-2.13-1.87.38.38,0,0,1-.31-.44.39.39,0,0,1,.45-.31,3.93,3.93,0,0,1,2.69,2.31.39.39,0,0,1-.19.51Z" style="fill:#263238"></path><path d="M176.92,154c.15,4.9-.35,13.74-4.19,16.25,0,0,.5,5,9.33,6.75,9.71,1.88,5.44-3.89,5.44-3.89-5.1-2.29-4.31-6.17-2.78-9.66Z" style="fill:#e58a7b"></path><path d="M201.92,180.22c2,1.52,4.2,3.13,6.37,4.6s4.39,3,6.65,4.33,4.55,2.64,6.85,3.87a72.58,72.58,0,0,0,7.05,3.18c.21.08.14,0,.19.07l.13,0a1.37,1.37,0,0,0,.39,0,5.67,5.67,0,0,0,1.19-.12,14.84,14.84,0,0,0,3.07-1.12,45.27,45.27,0,0,0,6.47-4c2.14-1.51,4.23-3.16,6.28-4.88s4.09-3.51,6.05-5.29l3,2.75A92.72,92.72,0,0,1,244.17,196a46.54,46.54,0,0,1-7.09,5.22,21.9,21.9,0,0,1-4.5,2,11.69,11.69,0,0,1-2.85.48,8.58,8.58,0,0,1-1.66-.07,7.1,7.1,0,0,1-.88-.16c-.26-.07-.67-.18-.78-.23a81.59,81.59,0,0,1-15.64-7.06c-2.44-1.42-4.85-2.89-7.19-4.47s-4.58-3.19-6.87-5.06Z" style="fill:#e58a7b"></path><path d="M252,181.62l2.38-6.13,5,5s-2.37,4.56-5.77,4.57Z" style="fill:#e58a7b"></path><polygon points="259.31 173.72 264.06 175.21 259.42 180.48 254.4 175.49 259.31 173.72" style="fill:#e58a7b"></polygon><path d="M164.41,405.42H155.3a.66.66,0,0,0-.66.56l-1.23,7.21a1.27,1.27,0,0,0,1.27,1.44c3.18-.05,4.71-.24,8.72-.24,2.46,0,7.56.26,11,.26s3.67-3.37,2.26-3.68c-6.32-1.36-8.77-3.25-10.87-5.05A2.06,2.06,0,0,0,164.41,405.42Z" style="fill:#263238"></path><path d="M176.12,142.7c-.81,8-1.33,11.33,2,16.16,5,7.25,15,6.8,18.23-.71,2.87-6.75,3.73-18.67-3.52-23.31A10.73,10.73,0,0,0,176.12,142.7Z" style="fill:#e58a7b"></path><path d="M177,160.1c-3.8-1.55-7.35-7.67-7.21-17.24s7.27-15.12,20-11.09S189.42,165.18,177,160.1Z" style="fill:#263238"></path><path d="M187.78,132.65c3.75-1.47,12.05.35,12.05,8.16l-8.07,6.55Z" style="fill:#263238"></path><path d="M186.73,132.58c5-.29,6.94-.27,11.47,1C195.22,130,189.64,131.18,186.73,132.58Z" style="fill:#263238"></path><path d="M191.06,146.86a7.31,7.31,0,0,0,.87,4.29c1,1.84,2.51,1.59,3.07.1.51-1.34.6-3.91-.8-5.29S191.3,145.21,191.06,146.86Z" style="fill:#e58a7b"></path><path d="M170.58,135.79c2.9,1.78,12.76.31,14.89-3.48s-5.23-10.13-11.9-9.9S164.12,131.81,170.58,135.79Z" style="fill:#407BFF"></path><polygon points="169.33 396.42 152.66 394.27 152.87 390.31 171 391.1 169.33 396.42" style="fill:#f5f5f5"></polygon><path d="M167.43,406.84a13.47,13.47,0,0,1-2.55-.29.18.18,0,0,1-.15-.16.2.2,0,0,1,.1-.2c.37-.19,3.65-1.85,4.63-1.29a.59.59,0,0,1,.31.51,1.06,1.06,0,0,1-.37.93A3,3,0,0,1,167.43,406.84Zm-1.91-.56c1.79.3,3.12.22,3.63-.22a.73.73,0,0,0,.24-.62.24.24,0,0,0-.12-.21C168.74,404.93,166.87,405.64,165.52,406.28Z" style="fill:#407BFF"></path><path d="M164.92,406.55a.27.27,0,0,1-.12,0,.2.2,0,0,1-.07-.18c0-.14.39-3.46,2.2-3.46h.16c.52.05.67.32.71.53.15.92-1.82,2.68-2.8,3.12Zm2-3.28c-1.17,0-1.63,1.92-1.78,2.75,1-.61,2.35-2,2.26-2.54,0,0,0-.17-.37-.21Z" style="fill:#407BFF"></path><path d="M158.69,169.34c-5.63.26-11,9.59-11,9.59l7.43,15.18s10.07-8.39,10.2-16.64C165.43,172.11,164.22,169.09,158.69,169.34Z" style="fill:#407BFF"></path><path d="M158.69,169.34c-5.63.26-11,9.59-11,9.59l7.43,15.18s10.07-8.39,10.2-16.64C165.43,172.11,164.22,169.09,158.69,169.34Z" style="fill:#fff;opacity:0.8"></path><path d="M156.41,218.73l32.52,6.3c15.36-45.24,11.69-46.7,11.69-46.7a67.8,67.8,0,0,0-7.38-3.43l-.45-.17c-2.07-.75-2.51-.87-5.3-1.68-4.79-1.13-9.25-2.05-14.77-2.85l-1.05-.15c-1-.12-2-.23-2.95-.32-.64-.07-1.29-.11-1.9-.16l-2.1-.11c-3.56-.18-6.1-.12-6.1-.12C160.48,197.57,159.12,205.68,156.41,218.73Z" style="fill:#407BFF"></path><path d="M156.41,218.73l32.52,6.3c15.36-45.24,11.69-46.7,11.69-46.7a67.8,67.8,0,0,0-7.38-3.43l-.45-.17c-2.07-.75-2.51-.87-5.3-1.68-4.79-1.13-9.25-2.05-14.77-2.85l-1.05-.15c-1-.12-2-.23-2.95-.32-.64-.07-1.29-.11-1.9-.16l-2.1-.11c-3.56-.18-6.1-.12-6.1-.12C160.48,197.57,159.12,205.68,156.41,218.73Z" style="fill:#fff;opacity:0.6000000000000001"></path><path d="M192.69,189.21c1.29,2.54,2.82,5.91,4.87,8.24.59-2.14,1.08-4,1.5-5.73Z" style="fill:#407BFF;opacity:0.2"></path><path d="M166.62,196c8.11-6.41,9.82-12.37,8.69-17.58s-2.43-14.3-1.5-17.34,4.17-9.35,3.51-14.74-2.2-12.88-.72-16.12,6.18-5.16,2.37-9.76c-1.85-2.23-9.69-2.57-11.74,3.65s-10.47,8.91-13.78,9.53-9.14,4.34-10.15,10.4-5.08,8.45-10.67,11.56S119,170.9,122.2,181.72C126.52,196.53,154.54,205.58,166.62,196Z" style="fill:#263238"></path><path d="M191,175.59c2.52-2,13.37,4.58,16.69,7.33l-1.94,14.26s-15.5-6.42-16.56-10.81C188.05,181.8,189,177.12,191,175.59Z" style="fill:#407BFF"></path><path d="M191,175.59c2.52-2,13.37,4.58,16.69,7.33l-1.94,14.26s-15.5-6.42-16.56-10.81C188.05,181.8,189,177.12,191,175.59Z" style="fill:#fff;opacity:0.6000000000000001"></path><path d="M156.23,216.74l-1.94,2.61c-.15.2.08.48.45.56l34.11,6.6c.29.06.56,0,.61-.22l.77-2.84c.05-.19-.17-.41-.49-.47L156.8,216.6A.58.58,0,0,0,156.23,216.74Z" style="fill:#407BFF"></path><path d="M160.05,221.26l-.88-.17c-.17,0-.29-.15-.26-.26l1-3.68c0-.11.2-.17.38-.14l.88.17c.17,0,.29.15.26.26l-1,3.68C160.4,221.23,160.23,221.29,160.05,221.26Z" style="fill:#407BFF"></path><path d="M182.33,225.62l-.89-.17c-.17,0-.29-.15-.26-.26l1-3.68c0-.1.2-.16.38-.13l.88.17c.18,0,.3.15.27.26l-1,3.68C182.67,225.6,182.5,225.66,182.33,225.62Z" style="fill:#407BFF"></path><path d="M160.05,221.26l-.88-.17c-.17,0-.29-.15-.26-.26l1-3.68c0-.11.2-.17.38-.14l.88.17c.17,0,.29.15.26.26l-1,3.68C160.4,221.23,160.23,221.29,160.05,221.26Z" style="opacity:0.6000000000000001"></path><path d="M182.33,225.62l-.89-.17c-.17,0-.29-.15-.26-.26l1-3.68c0-.1.2-.16.38-.13l.88.17c.18,0,.3.15.27.26l-1,3.68C182.67,225.6,182.5,225.66,182.33,225.62Z" style="opacity:0.6000000000000001"></path></g></svg>