<?xml version="1.0"?>
<svg xmlns="http://www.w3.org/2000/svg" xmlns:xlink="http://www.w3.org/1999/xlink" xmlns:svgjs="http://svgjs.com/svgjs" version="1.1" width="512" height="512" x="0" y="0" viewBox="0 0 512 512" style="enable-background:new 0 0 512 512" xml:space="preserve" class=""><g><g xmlns="http://www.w3.org/2000/svg"><path d="m258 20c-53.748 0-98.319 39.265-106.61 90.674-3.568-.443-7.202-.674-10.89-.674-48.325 0-87.5 39.175-87.5 87.5 0 11.196 2.106 21.9 5.938 31.74-23.726 12.417-39.735 37.57-38.908 66.392 1.061 36.967 30.295 67.533 67.183 70.178 4.762.342 9.431.214 13.971-.333.071-3.142.879-12.551 1.108-14.107-14.221-11.736-23.292-29.49-23.292-49.37 0-21.526 14.809-31.741 31.105-43.339 5.304-3.775 7.476-10.518 5.322-16.661-2.308-6.584-5.659-26.572-5.414-34 1-30.356 20.987-47 45.987-44.283 3.504.381 16.012 4.438 20.29 5.19 10.106 1.777 19.654-4.853 21.71-14.906 9.131-44.666 48.635-90 96-90 24.653 0 47.178 9.106 64.4 24.134-15.862-39.915-54.834-68.135-100.4-68.135z" fill="#cee1f2" data-original="#cee1f2" style="" class=""/><path d="m107 386c-21 0-25.097-.655-25.097-.655-46.071-5.47-81.903-44.573-81.903-91.845 0-28.843 13.276-55.51 35.5-72.856-1.662-7.559-2.5-15.297-2.5-23.144 0-57.677 45.653-104.89 102.724-107.395 7.084-22.836 20.529-43.434 38.889-59.214 23.176-19.92 52.79-30.891 83.387-30.891 33.388 0 64.987 12.782 88.979 35.99 19.343 18.711 32.084 42.582 36.879 68.591 71.746 6.514 128.142 67.004 128.142 140.419 0 63.379-42.652 119.311-103.724 136.015-.037.01-.075.021-.112.03-.629.168-6.396 1.679-15.226 2.991-10.934 1.616-21.099-5.919-22.722-16.845s5.919-21.099 16.845-22.721c6.176-.917 10.275-1.941 10.773-2.068 43.674-12 74.166-52.036 74.166-97.402 0-55.691-45.309-101-101-101-1.279 0-2.671.032-4.255.097-5.307.224-10.507-1.691-14.413-5.31-3.906-3.618-6.208-8.645-6.396-13.966-1.684-47.563-40.309-84.821-87.936-84.821-43.431 0-79.963 31.062-86.865 73.858-1.715 10.625-11.531 17.984-22.209 16.663-2.787-.346-5.622-.521-8.426-.521-37.22 0-67.5 30.28-67.5 67.5 0 8.45 1.539 16.687 4.575 24.483 3.697 9.495-.335 20.252-9.363 24.977-17.401 9.108-28.212 26.941-28.212 46.54 0 28.949 23.775 52.5 53 52.5h14c11.046 0 20 8.954 20 20s-8.954 20-20 20z" fill="#172b86" data-original="#0023c4" style="" class=""/><path d="m223.001 512c-5.189 0-10.375-2.007-14.292-6.008-7.728-7.893-7.594-20.556.3-28.283l82.12-80.398c2.399-2.346 2.07-4.874 1.374-6.583-.693-1.701-2.216-3.728-5.533-3.728h-75.94c-18.812 0-35.535-11.269-42.606-28.708-7.075-17.45-2.917-37.198 10.594-50.31l86.069-83.349c7.935-7.685 20.597-7.481 28.28.454 7.685 7.935 7.481 20.597-.454 28.281l-86.054 83.334c-2.385 2.315-2.061 4.847-1.366 6.56.691 1.706 2.213 3.738 5.537 3.738h75.939c18.774 0 35.486 11.239 42.575 28.631 7.093 17.405 2.993 37.138-10.445 50.273l-82.108 80.387c-3.891 3.81-8.942 5.709-13.99 5.709z" fill="#e7073e" data-original="#ff5cf3" style="" class=""/></g></g></svg>
