<?xml version="1.0"?>
<svg xmlns="http://www.w3.org/2000/svg" xmlns:xlink="http://www.w3.org/1999/xlink" xmlns:svgjs="http://svgjs.com/svgjs" version="1.1" width="512" height="512" x="0" y="0" viewBox="0 0 513 513" style="enable-background:new 0 0 512 512" xml:space="preserve" class=""><g><g xmlns="http://www.w3.org/2000/svg"><path d="m160.5 393v-150c0-55.229 44.771-100 100-100h-60c-55.229 0-100 44.771-100 100v150c0 55.228 44.771 100 100 100h60c-55.228 0-100-44.772-100-100z" fill="#cee1f2" data-original="#cee1f2" style=""/><path d="m392.5 513h-192c-66.168 0-120-53.832-120-120v-150c0-66.168 53.832-120 120-120h192c66.168 0 120 53.832 120 120v150c0 66.168-53.832 120-120 120zm-192-350c-44.112 0-80 35.888-80 80v150c0 44.112 35.888 80 80 80h192c44.112 0 80-35.888 80-80v-150c0-44.112-35.888-80-80-80zm151.077 108c13.807 0 25-11.193 25-25s-11.193-25-25-25-25 11.193-25 25 11.193 25 25 25zm-311.077 49.949v-200.949c0-44.112 35.888-80 80-80h192c26.189 0 50.767 12.865 65.744 34.414 6.304 9.07 18.768 11.312 27.837 5.009 9.07-6.304 11.313-18.768 5.008-27.837-22.449-32.302-59.305-51.586-98.589-51.586h-192c-66.168 0-120 53.832-120 120v200.949c0 11.046 8.954 20 20 20s20-8.954 20-20z" fill="#0481b7" data-original="#0023c4" style="" class=""/><path d="m180.574 397c-4.957 0-9.92-1.831-13.792-5.52-7.997-7.618-8.304-20.278-.686-28.275l49.818-52.294c.355-.373.724-.731 1.106-1.075 25.443-22.884 63.392-24.086 90.232-2.859.086.068.171.137.256.206l30.414 24.875c14.374 11.316 25.662 10.593 37.674-2.431l28.765-33.724c7.167-8.404 19.792-9.407 28.196-2.238 8.404 7.168 9.406 19.792 2.238 28.195l-29 34c-.146.172-.295.341-.447.507-17.205 18.844-34.958 23.262-46.821 23.65-15.34.496-31.102-5.265-45.535-16.679-.086-.068-.171-.137-.256-.206l-30.408-24.87c-11.319-8.867-27.19-8.476-38.051.867l-49.218 51.665c-3.932 4.127-9.204 6.206-14.485 6.206z" fill="#0481b7" data-original="#ff5cf4" style="" class=""/></g></g></svg>
