<svg xmlns="http://www.w3.org/2000/svg" viewBox="0 0 500 500"><g id="freepik--background-simple--inject-25"><path d="M217.81,143.56c-42.85,4.25-90.31-17.08-128.69,11C53.07,181,49.48,233.41,64.05,270.85c35.54,91.25,154.88,72.72,229.63,44.68,68.61-25.73,167.91-108.38,124.68-192.92-16.46-32.2-57-54.34-93.25-48.79C275.06,81.46,269.51,138.44,217.81,143.56Z" style="fill:#407BFF"></path><path d="M217.81,143.56c-42.85,4.25-90.31-17.08-128.69,11C53.07,181,49.48,233.41,64.05,270.85c35.54,91.25,154.88,72.72,229.63,44.68,68.61-25.73,167.91-108.38,124.68-192.92-16.46-32.2-57-54.34-93.25-48.79C275.06,81.46,269.51,138.44,217.81,143.56Z" style="fill:#fff;opacity:0.9"></path></g><g id="freepik--Shadow--inject-25"><ellipse cx="250" cy="416.24" rx="193.89" ry="11.32" style="fill:#f5f5f5"></ellipse></g><g id="freepik--Character--inject-25"><path d="M217.87,150.7c.07,11.85-8.42,11.73-8.25,8.05s-1.93-12.49,0-11.64S217.84,145.46,217.87,150.7Z" style="fill:#263238"></path><path d="M212.53,172.16c1.17-.09,3.52,1,3.73,4.09a5.81,5.81,0,0,0,2.59,4.49s-3.89.47-6.44-1.55c-2.08-1.63-3-5.2-1.91-6A5.49,5.49,0,0,1,212.53,172.16Z" style="fill:#263238"></path><path d="M211,163.74c2,1.77,3.83,6.45-.68,8.67s-11.6-2.95-11.6-2.95l7.79-3.61Z" style="fill:#263238"></path><path d="M213.22,172.59a8.94,8.94,0,0,0-.54-1.89.41.41,0,0,0-.61-.2l-2.77,1.85a.41.41,0,0,0,0,.68,6.82,6.82,0,0,0,1.28.74c.65.26,2-.48,2.46-.8A.39.39,0,0,0,213.22,172.59Z" style="fill:#407BFF"></path><path d="M213.22,172.59a8.94,8.94,0,0,0-.54-1.89.41.41,0,0,0-.61-.2l-2.77,1.85a.41.41,0,0,0,0,.68,6.82,6.82,0,0,0,1.28.74c.65.26,2-.48,2.46-.8A.39.39,0,0,0,213.22,172.59Z" style="opacity:0.30000000000000004"></path><path d="M183.41,167.68c-1.11-.37-3.65.13-4.59,3.09a5.83,5.83,0,0,1-3.58,3.75s3.67,1.38,6.63,0c2.4-1.09,4.1-4.35,3.27-5.39A5.27,5.27,0,0,0,183.41,167.68Z" style="fill:#263238"></path><path d="M194.43,147.33c-4.05,1.1-9.5,5.9-7.08,11.79-2.39,1.63-5.45,6.32-1.87,9.32,3.85,3.23,13.32-1.3,13.32-1.3l.07-1.54L200,154.14Z" style="fill:#263238"></path><path d="M182.64,167.94a8.91,8.91,0,0,1,1-1.71.42.42,0,0,1,.65,0l2.24,2.45a.42.42,0,0,1-.15.67,7.06,7.06,0,0,1-1.41.41c-.7.1-1.78-.93-2.2-1.35A.42.42,0,0,1,182.64,167.94Z" style="fill:#407BFF"></path><path d="M182.64,167.94a8.91,8.91,0,0,1,1-1.71.42.42,0,0,1,.65,0l2.24,2.45a.42.42,0,0,1-.15.67,7.06,7.06,0,0,1-1.41.41c-.7.1-1.78-.93-2.2-1.35A.42.42,0,0,1,182.64,167.94Z" style="opacity:0.30000000000000004"></path><path d="M219.08,189.07c1.91,1.48,4,3.06,6.1,4.5s4.21,2.89,6.38,4.22,4.37,2.57,6.59,3.75l1.67.85,1.7.79c.56.27,1.13.51,1.71.73l.85.35c.29.11.6.25.78.3a19.29,19.29,0,0,0,3.2.69c1.18.17,2.42.29,3.68.38,2.51.16,5.09.23,7.68.24s5.21,0,7.82-.08,5.25-.14,7.85-.22l.49,3.93a154,154,0,0,1-15.89,2.35c-2.69.24-5.39.42-8.15.44-1.38,0-2.78,0-4.22-.13a22.47,22.47,0,0,1-4.58-.75c-.46-.12-.75-.24-1.09-.35l-1-.35c-.67-.22-1.33-.46-2-.73l-1.94-.78-1.9-.84a75.75,75.75,0,0,1-7.33-3.8c-2.36-1.39-4.68-2.83-6.92-4.37s-4.4-3.13-6.6-5Z" style="fill:#e4897b"></path><path d="M208.7,184.58c2.49-1.94,12.74,4.41,15.86,7.06l-2.27,13.73s-14.75-6.18-15.64-10.4C205.73,190.56,206.82,186.06,208.7,184.58Z" style="fill:#263238"></path><path d="M274,205.91l6.18-4.79.49,7.41s-4.26,2.64-7.07,1Z" style="fill:#e4897b"></path><polygon points="285.69 200.39 288.85 203.91 280.63 208.53 280.14 201.12 285.69 200.39" style="fill:#e4897b"></polygon><polygon points="168.28 406.47 176.07 407.05 178.91 389.12 171.13 388.54 168.28 406.47" style="fill:#e4897b"></polygon><polygon points="113.17 381.41 119.78 385.57 131.55 371.61 124.94 367.44 113.17 381.41" style="fill:#e4897b"></polygon><path d="M121.87,384.08l-6.19-6.23a.62.62,0,0,0-.82-.06L109.23,382a1.26,1.26,0,0,0-.1,1.87c2.19,2.13,3.36,3.05,6.08,5.79,1.67,1.69,3.94,4.32,6.25,6.65s4.73.16,4-1c-3.38-5.27-2.77-7.24-3-9.92A2.07,2.07,0,0,0,121.87,384.08Z" style="fill:#263238"></path><path d="M176.59,405.93h-8.78a.66.66,0,0,0-.65.54l-1.39,6.94A1.18,1.18,0,0,0,167,414.8c3.06-.05,4.55-.23,8.41-.23,2.37,0,9,.24,12.31.24s3.64-3.24,2.29-3.53c-6.05-1.32-10.13-3.13-12.1-4.87A1.93,1.93,0,0,0,176.59,405.93Z" style="fill:#263238"></path><polygon points="178.91 389.12 177.33 399.08 169.65 397.79 171.12 388.55 178.91 389.12" style="fill:#ce6f64"></polygon><polygon points="124.94 367.45 131.55 371.61 126.68 377.39 119.92 373.4 124.94 367.45" style="fill:#ce6f64"></polygon><path d="M174.2,226.13l31.14,6.07c16.09-43.57,12.59-45,12.59-45a62.53,62.53,0,0,0-7-3.3l-.42-.16c-2-.73-2.4-.84-5.06-1.62-4.58-1.09-8.85-2-14.14-2.75l-1-.14c-1-.12-1.91-.22-2.83-.31-.62-.07-1.24-.11-1.83-.15l-2-.11c-3.42-.17-5.87-.12-5.87-.12C178.73,205.75,177.19,213.56,174.2,226.13Z" style="fill:#263238"></path><path d="M195.81,163.74c0,4.72-.73,13.23-4.51,15.65,0,0,.35,4.86,8.8,6.5,9.3,1.81,5.34-3.75,5.34-3.75-4.83-2.2-4-5.94-2.4-9.3Z" style="fill:#e4897b"></path><path d="M198.76,167.45l4.28,5.39a15.19,15.19,0,0,0-.92,2.42c-1.89-.66-4.14-3.3-4-5.37A7,7,0,0,1,198.76,167.45Z" style="fill:#ce6f64"></path><path d="M195.36,152.9c-1,7.69-1.61,10.92,1.47,15.57,4.63,7,14.29,6.55,17.58-.68,3-6.51,4.12-18-2.73-22.45A10.57,10.57,0,0,0,195.36,152.9Z" style="fill:#e4897b"></path><path d="M220.39,140.72a9.76,9.76,0,0,1-.27,3.64,10.24,10.24,0,0,0-.29-1.19c-2.74-9.06-15.08-6.9-18.8-3-6-1.72-11.71-.35-10.95,7a9.14,9.14,0,0,0,1.95,5.2c-.93,2.58,0,6.69,3.07,6.81,4.32.17,8.42-5.55,10.07-8.69,3,.51,7.32,1,10.6.2.55.33,1,.56,1,.56C220.26,149.38,222.92,147.57,220.39,140.72Z" style="fill:#263238"></path><path d="M192.7,158.15a5.69,5.69,0,0,0,1.31,4.12c1.3,1.51,3,.62,3.61-1.17.51-1.62.44-4.35-1.3-5.2A2.54,2.54,0,0,0,192.7,158.15Z" style="fill:#e4897b"></path><path d="M204.87,232.2s.12,61.82-4.94,85.1c-5.26,24.22-20.73,79.32-20.73,79.32L168,395.17s8.77-55.66,12.5-79.73c4.07-26.23,1.58-87.68,1.58-87.68Z" style="fill:#407BFF"></path><path d="M204.87,232.2s.12,61.82-4.94,85.1c-5.26,24.22-20.73,79.32-20.73,79.32L168,395.17s8.77-55.66,12.5-79.73c4.07-26.23,1.58-87.68,1.58-87.68Z" style="opacity:0.30000000000000004"></path><polygon points="181.11 397.59 166.08 395.65 166.72 390.33 183.78 392.33 181.11 397.59" style="fill:#263238"></polygon><path d="M197.12,230.6s-16.77,51.09-25.1,80.52c-8.78,31.05-42.44,65.39-42.44,65.39l-9.65-5.58s23-32.6,31.45-61.57c17.21-58.81,10.14-71.27,22.82-83.23Z" style="fill:#407BFF"></path><path d="M197.12,230.6s-16.77,51.09-25.1,80.52c-8.78,31.05-42.44,65.39-42.44,65.39l-9.65-5.58s23-32.6,31.45-61.57c17.21-58.81,10.14-71.27,22.82-83.23Z" style="opacity:0.30000000000000004"></path><polygon points="131.15 378.06 117.74 370.32 121.08 365.54 135.97 373.75 131.15 378.06" style="fill:#263238"></polygon><path d="M206.46,157.27c-.12.62.11,1.18.52,1.26s.83-.36,1-1-.11-1.19-.52-1.27S206.58,156.65,206.46,157.27Z" style="fill:#263238"></path><path d="M213.45,158.63c-.12.62.11,1.19.52,1.27s.83-.36.95-1-.11-1.19-.52-1.26S213.57,158,213.45,158.63Z" style="fill:#263238"></path><path d="M214.22,157.65l1.57-.13S214.8,158.53,214.22,157.65Z" style="fill:#263238"></path><path d="M211.4,159.34a16.69,16.69,0,0,0,1.44,4.37,2.7,2.7,0,0,1-2.29,0Z" style="fill:#de5753"></path><path d="M207.93,165.71h0a5.25,5.25,0,0,1-3.89-2.92.18.18,0,0,1,.1-.24.19.19,0,0,1,.24.1,5,5,0,0,0,3.62,2.7.18.18,0,0,1,.15.21A.19.19,0,0,1,207.93,165.71Z" style="fill:#263238"></path><path d="M204.87,154.61a.37.37,0,0,1-.25-.64,3.7,3.7,0,0,1,3.25-.93.38.38,0,0,1,.26.46.37.37,0,0,1-.45.26h0a3,3,0,0,0-2.57.76A.36.36,0,0,1,204.87,154.61Z" style="fill:#263238"></path><path d="M217.33,156a.36.36,0,0,1-.34-.23,3,3,0,0,0-2-1.79.37.37,0,0,1-.3-.43.39.39,0,0,1,.43-.3,3.69,3.69,0,0,1,2.54,2.23.37.37,0,0,1-.2.49Z" style="fill:#263238"></path><path d="M207.3,162.75a2,2,0,0,1-1.6-.79,6.33,6.33,0,0,1-.8-5c.57-3.16,2.55-5.73,4.42-5.73a2.07,2.07,0,0,1,1.61.8,6.36,6.36,0,0,1,.8,5C211.16,160.19,209.17,162.75,207.3,162.75Zm2-11.24c-1.75,0-3.63,2.48-4.18,5.52-.35,2-.07,3.8.75,4.77a1.8,1.8,0,0,0,1.41.7c1.76,0,3.63-2.47,4.18-5.51l.12,0-.12,0a6,6,0,0,0-.75-4.77A1.81,1.81,0,0,0,209.32,151.51Z" style="fill:#fafafa"></path><path d="M215.07,163.75h0a2.17,2.17,0,0,1-1.67-.84,5.83,5.83,0,0,1-.81-4.63c.51-2.94,2.43-5.32,4.28-5.32h0a2.17,2.17,0,0,1,1.67.85,5.86,5.86,0,0,1,.81,4.62h0C218.85,161.38,216.93,163.75,215.07,163.75Zm1.77-10.54c-1.74,0-3.54,2.29-4,5.12a5.68,5.68,0,0,0,.76,4.42,1.94,1.94,0,0,0,1.48.75h0c1.74,0,3.55-2.28,4-5.11h0a5.72,5.72,0,0,0-.75-4.42,1.94,1.94,0,0,0-1.48-.76Z" style="fill:#fafafa"></path><path d="M124.17,387.71h0c-1,0-2.05-1.54-2.59-2.43a.18.18,0,0,1,0-.2.21.21,0,0,1,.19-.08c.32.07,3.07.67,3.42,1.61a.61.61,0,0,1-.11.62A1.06,1.06,0,0,1,124.17,387.71Zm-2.09-2.25c.77,1.16,1.52,1.85,2.06,1.88a.7.7,0,0,0,.6-.33.25.25,0,0,0,.05-.27C124.61,386.24,123.18,385.74,122.08,385.46Z" style="fill:#407BFF"></path><path d="M122.53,385.46a3.61,3.61,0,0,1-.9-.1.21.21,0,0,1-.13-.13.24.24,0,0,1,0-.18c.07-.06,1.6-1.57,2.73-1.57h.08a1,1,0,0,1,.72.38.66.66,0,0,1,.08.81C124.79,385.21,123.51,385.46,122.53,385.46Zm-.45-.39c.94.11,2.46-.16,2.77-.61.05-.07.09-.18-.06-.37a.57.57,0,0,0-.46-.24A4.23,4.23,0,0,0,122.08,385.07Z" style="fill:#407BFF"></path><path d="M179.46,407.3A13.23,13.23,0,0,1,177,407a.19.19,0,0,1-.15-.16.19.19,0,0,1,.1-.19c.37-.18,3.58-1.78,4.51-1.24a.6.6,0,0,1,.28.5,1.05,1.05,0,0,1-.39.89A3,3,0,0,1,179.46,407.3Zm-1.83-.54c1.71.28,3,.21,3.5-.22a.73.73,0,0,0,.25-.6.21.21,0,0,0-.1-.19C180.78,405.46,179,406.14,177.63,406.76Z" style="fill:#407BFF"></path><path d="M177.05,407a.2.2,0,0,1-.11,0,.18.18,0,0,1-.08-.18c0-.14.48-3.32,2.22-3.32h.15c.5.05.64.3.67.51.14.88-1.8,2.58-2.78,3Zm2-3.16c-1.13,0-1.63,1.84-1.8,2.64,1-.59,2.33-1.92,2.25-2.45,0,0,0-.16-.35-.19Z" style="fill:#407BFF"></path><path d="M207.23,156.29l1.57-.14S207.81,157.17,207.23,156.29Z" style="fill:#263238"></path><path d="M200.36,192.54c-13-4.93-17.06-12.31-16.75-13.86h0l2,.12.34,0c.48,0,1,.07,1.49.13.92.08,1.87.18,2.83.31l1,.14a100.71,100.71,0,0,1,14.14,2.75c2.12.62,2.82.82,4,1.24l1.05.38.42.16C211.92,186.15,211.69,190.73,200.36,192.54Z" style="fill:#e4897b"></path><path d="M200.36,192.54c-13-4.93-17.06-12.31-16.75-13.86h0l2,.12.34,0c2.64,3.75,8.42,8.93,14.31,9.64,4.74-1,9.21-2.14,9.17-5.07l1.05.38.42.16C211.92,186.15,211.69,190.73,200.36,192.54Z" style="fill:#407BFF"></path><path d="M200.36,192.54c-13-4.93-17.06-12.31-16.75-13.86h0l2,.12.34,0c2.64,3.75,8.42,8.93,14.31,9.64,4.74-1,9.21-2.14,9.17-5.07l1.05.38.42.16C211.92,186.15,211.69,190.73,200.36,192.54Z" style="opacity:0.30000000000000004"></path><path d="M174.09,224.21l-2,2.52c-.15.19.07.46.43.53l32.66,6.36c.28.06.54,0,.59-.21l.82-2.73c.06-.19-.15-.4-.46-.46l-31.54-6.14A.58.58,0,0,0,174.09,224.21Z" style="fill:#263238"></path><path d="M177.64,228.56l-.84-.16c-.17,0-.28-.14-.25-.25l1.1-3.54c0-.11.2-.16.36-.13l.85.16c.17,0,.28.15.25.25l-1.1,3.55A.32.32,0,0,1,177.64,228.56Z" style="fill:#407BFF"></path><path d="M177.64,228.56l-.84-.16c-.17,0-.28-.14-.25-.25l1.1-3.54c0-.11.2-.16.36-.13l.85.16c.17,0,.28.15.25.25l-1.1,3.55A.32.32,0,0,1,177.64,228.56Z" style="opacity:0.30000000000000004"></path><path d="M179.86,190.61c-.38,2.37-.74,5-1,7.46s-.49,5-.61,7.56q-.1,1.89-.12,3.78c0,1.25,0,2.5,0,3.75a63.85,63.85,0,0,0,.57,7.32,7,7,0,0,0,1,2.33,23.63,23.63,0,0,0,2,2.78,62.78,62.78,0,0,0,5.12,5.39c1.83,1.76,3.75,3.46,5.72,5.12s4,3.31,6,4.9l-2.15,3.32a104.32,104.32,0,0,1-13.46-8.79,57.61,57.61,0,0,1-6.2-5.5,28.62,28.62,0,0,1-2.83-3.41,13,13,0,0,1-2.21-4.79l-.37-2.12c-.13-.69-.22-1.38-.3-2.06-.2-1.38-.31-2.75-.42-4.12a77.34,77.34,0,0,1-.19-8.19c.08-2.71.23-5.41.5-8.1s.61-5.33,1.15-8.11Z" style="fill:#e4897b"></path><path d="M173.22,180.63c-4.28,3.46-3.26,13.74-3.26,13.74l14.4,4.74S183.7,187.26,183,183C182.14,177.93,177.42,177.22,173.22,180.63Z" style="fill:#263238"></path><path d="M196.78,240.36l6.51-2.42-1,6.19s-4.72,1.7-7.14-.48Z" style="fill:#e4897b"></path><polygon points="211.04 238.86 211.04 243.64 202.29 244.13 203.29 237.94 211.04 238.86" style="fill:#e4897b"></polygon><path d="M202.79,233.46l-.84-.16c-.17,0-.28-.14-.25-.25l1.1-3.54c0-.11.2-.16.37-.13l.84.16c.17,0,.28.15.25.25l-1.1,3.55C203.13,233.44,203,233.5,202.79,233.46Z" style="fill:#407BFF"></path><path d="M202.79,233.46l-.84-.16c-.17,0-.28-.14-.25-.25l1.1-3.54c0-.11.2-.16.37-.13l.84.16c.17,0,.28.15.25.25l-1.1,3.55C203.13,233.44,203,233.5,202.79,233.46Z" style="opacity:0.30000000000000004"></path><path d="M190.22,231l-.85-.16c-.17,0-.28-.14-.24-.25l1.1-3.54c0-.11.19-.16.36-.13l.85.16c.16,0,.28.15.24.25l-1.1,3.55C190.55,231,190.39,231.05,190.22,231Z" style="fill:#407BFF"></path><path d="M190.22,231l-.85-.16c-.17,0-.28-.14-.24-.25l1.1-3.54c0-.11.19-.16.36-.13l.85.16c.16,0,.28.15.24.25l-1.1,3.55C190.55,231,190.39,231.05,190.22,231Z" style="opacity:0.30000000000000004"></path><path d="M126.53,289.31l51.84,113.22a10.73,10.73,0,0,0,14.18,5.27l8.23-3.76,190.57-87.25a10.72,10.72,0,0,0,5.28-14.17l-45.81-100-6-13.21a10.74,10.74,0,0,0-14.18-5.27l-198.81,91A10.74,10.74,0,0,0,126.53,289.31Z" style="fill:#407BFF"></path><path d="M126.53,289.31l51.84,113.22a10.73,10.73,0,0,0,14.18,5.27l8.23-3.76,190.57-87.25a10.72,10.72,0,0,0,5.28-14.17l-45.81-100-6-13.21a10.74,10.74,0,0,0-14.18-5.27l-198.81,91A10.74,10.74,0,0,0,126.53,289.31Z" style="fill:#fff;opacity:0.1"></path><rect x="149.45" y="282.52" width="240.04" height="61.36" transform="translate(644.86 485.79) rotate(155.4)" style="fill:#407BFF"></rect><rect x="149.45" y="282.52" width="240.04" height="61.36" transform="translate(644.86 485.79) rotate(155.4)" style="fill:#fff;opacity:0.30000000000000004"></rect><rect x="216.54" y="291.72" width="151.69" height="21.96" transform="translate(684.25 456.21) rotate(155.4)" style="fill:#407BFF"></rect><rect x="216.54" y="291.72" width="151.69" height="21.96" transform="translate(684.25 456.21) rotate(155.4)" style="fill:#fff;opacity:0.8"></rect><rect x="134.75" y="264.71" width="240.04" height="32.74" transform="translate(603.41 430.59) rotate(155.4)" style="fill:#407BFF"></rect><rect x="134.75" y="264.71" width="240.04" height="32.74" transform="translate(603.41 430.59) rotate(155.4)" style="opacity:0.30000000000000004"></rect><path d="M156.17,290.73,200.78,404l190.57-87.25a10.72,10.72,0,0,0,5.28-14.17l-45.81-100L162.21,276.86A10.73,10.73,0,0,0,156.17,290.73Z" style="fill:#407BFF;mix-blend-mode:multiply"></path><rect x="408.21" y="254.99" width="1" height="4.71" transform="translate(-62.19 150.01) rotate(-19.36)" style="fill:#407BFF"></rect><rect x="408.21" y="254.99" width="1" height="4.71" transform="translate(-62.19 150.01) rotate(-19.36)" style="fill:#fff;opacity:0.1"></rect><rect x="402.64" y="232.21" width="1" height="18.56" transform="translate(-57.25 147.23) rotate(-19.35)" style="fill:#407BFF"></rect><rect x="402.64" y="232.21" width="1" height="18.56" transform="translate(-57.25 147.23) rotate(-19.35)" style="fill:#fff;opacity:0.1"></rect><path d="M169.44,277.25l206.3-72.45a10.72,10.72,0,0,1,13.63,6.55l41.26,117.49a10.73,10.73,0,0,1-6.54,13.64l-206.3,72.45a10.74,10.74,0,0,1-13.64-6.55L162.89,290.89A10.73,10.73,0,0,1,169.44,277.25Z" style="fill:#407BFF"></path><path d="M169.44,277.25l206.3-72.45a10.72,10.72,0,0,1,13.63,6.55l41.26,117.49a10.73,10.73,0,0,1-6.54,13.64l-206.3,72.45a10.74,10.74,0,0,1-13.64-6.55L162.89,290.89A10.73,10.73,0,0,1,169.44,277.25Z" style="fill:#fff;opacity:0.1"></path><rect x="180.88" y="294.55" width="240.04" height="54.17" transform="translate(691.37 525.4) rotate(160.65)" style="fill:#407BFF"></rect><rect x="180.88" y="294.55" width="240.04" height="54.17" transform="translate(691.37 525.4) rotate(160.65)" style="fill:#fff;opacity:0.30000000000000004"></rect><rect x="331.11" y="239.45" width="49.62" height="7.73" transform="translate(772.36 354.95) rotate(160.65)" style="fill:#407BFF"></rect><rect x="331.11" y="239.45" width="49.62" height="7.73" transform="translate(772.36 354.95) rotate(160.65)" style="fill:#fff;opacity:0.8"></rect><rect x="371.4" y="327.25" width="39.81" height="4.04" transform="translate(869.61 510.27) rotate(160.65)" style="fill:#407BFF"></rect><rect x="371.4" y="327.25" width="39.81" height="4.04" transform="translate(869.61 510.27) rotate(160.65)" style="fill:#fff;opacity:0.8"></rect><rect x="362.79" y="336.44" width="51.3" height="4.04" transform="translate(867.09 529.09) rotate(160.65)" style="fill:#407BFF"></rect><rect x="362.79" y="336.44" width="51.3" height="4.04" transform="translate(867.09 529.09) rotate(160.65)" style="fill:#fff;opacity:0.8"></rect><rect x="215.9" y="387.74" width="25.65" height="8.69" transform="translate(574.45 686.23) rotate(160.65)" style="fill:#407BFF"></rect><rect x="215.9" y="387.74" width="25.65" height="8.69" transform="translate(574.45 686.23) rotate(160.65)" style="fill:#fff;opacity:0.8"></rect><path d="M368.79,313.5l28.26-9.92a6,6,0,0,0,3.66-7.61h0a6,6,0,0,0-7.61-3.66l-28.27,9.93a6,6,0,0,0-3.66,7.61h0A6,6,0,0,0,368.79,313.5Z" style="fill:#407BFF"></path><path d="M320.38,330.5l28.27-9.93A6,6,0,0,0,352.3,313h0a6,6,0,0,0-7.61-3.65l-28.26,9.93a6,6,0,0,0-3.66,7.61h0A6,6,0,0,0,320.38,330.5Z" style="fill:#407BFF"></path><path d="M272,347.5l28.27-9.93A6,6,0,0,0,303.9,330h0a6,6,0,0,0-7.61-3.65L268,336.24a6,6,0,0,0-3.65,7.61h0A6,6,0,0,0,272,347.5Z" style="fill:#407BFF"></path><path d="M223.57,364.5l28.27-9.93A6,6,0,0,0,255.5,347h0a6,6,0,0,0-7.61-3.65l-28.27,9.93a6,6,0,0,0-3.66,7.61h0A6,6,0,0,0,223.57,364.5Z" style="fill:#407BFF"></path><g style="opacity:0.8"><path d="M368.79,313.5l28.26-9.92a6,6,0,0,0,3.66-7.61h0a6,6,0,0,0-7.61-3.66l-28.27,9.93a6,6,0,0,0-3.66,7.61h0A6,6,0,0,0,368.79,313.5Z" style="fill:#fff"></path><path d="M320.38,330.5l28.27-9.93A6,6,0,0,0,352.3,313h0a6,6,0,0,0-7.61-3.65l-28.26,9.93a6,6,0,0,0-3.66,7.61h0A6,6,0,0,0,320.38,330.5Z" style="fill:#fff"></path><path d="M272,347.5l28.27-9.93A6,6,0,0,0,303.9,330h0a6,6,0,0,0-7.61-3.65L268,336.24a6,6,0,0,0-3.65,7.61h0A6,6,0,0,0,272,347.5Z" style="fill:#fff"></path><path d="M223.57,364.5l28.27-9.93A6,6,0,0,0,255.5,347h0a6,6,0,0,0-7.61-3.65l-28.27,9.93a6,6,0,0,0-3.66,7.61h0A6,6,0,0,0,223.57,364.5Z" style="fill:#fff"></path></g><rect x="357.45" y="263.01" width="34.86" height="24.02" rx="4.1" transform="translate(819.7 410.28) rotate(160.65)" style="fill:#407BFF"></rect><rect x="357.45" y="263.01" width="34.86" height="24.02" rx="4.1" transform="translate(819.7 410.28) rotate(160.65)" style="opacity:0.30000000000000004"></rect><path d="M218,306.21a14.48,14.48,0,1,1,4.8-.82A14.43,14.43,0,0,1,218,306.21Zm0-28a13.75,13.75,0,0,0-4.51.77,13.58,13.58,0,0,0-8.31,17.31h0a13.57,13.57,0,1,0,12.82-18.08Z" style="fill:#407BFF"></path><path d="M218,306.21a14.48,14.48,0,1,1,4.8-.82A14.43,14.43,0,0,1,218,306.21Zm0-28a13.75,13.75,0,0,0-4.51.77,13.58,13.58,0,0,0-8.31,17.31h0a13.57,13.57,0,1,0,12.82-18.08Z" style="fill:#fff;opacity:0.8"></path><path d="M184.08,303.67a14,14,0,1,0,8.58-17.88A14,14,0,0,0,184.08,303.67Z" style="fill:#407BFF"></path><path d="M184.08,303.67a14,14,0,1,0,8.58-17.88A14,14,0,0,0,184.08,303.67Z" style="fill:#fff;opacity:0.8"></path></g></svg>