<svg width="714" height="571" viewBox="0 0 714 571" fill="none" xmlns="http://www.w3.org/2000/svg">
<g opacity="0.4" filter="url(#filter0_d)">
<path opacity="0.2" d="M491.868 82.0223C490.091 79.9445 490.091 76.62 491.868 74.646L546.426 10.8566C548.203 8.77876 551.047 8.77876 552.735 10.8566C554.512 12.9344 554.512 16.259 552.735 18.2329L498.177 82.0223C496.4 83.9963 493.645 83.9963 491.868 82.0223Z" fill="url(#paint0_linear)"/>
<path opacity="0.2" d="M459.08 355.569C457.303 353.491 457.303 350.167 459.08 348.193L537.452 256.56C539.229 254.482 542.072 254.482 543.76 256.56C545.538 258.638 545.538 261.963 543.76 263.937L465.389 355.569C463.7 357.647 460.857 357.647 459.08 355.569Z" fill="url(#paint1_linear)"/>
<path opacity="0.5" d="M616.712 288.455C614.935 286.377 614.935 283.053 616.712 281.079L695.083 189.446C696.861 187.369 699.704 187.369 701.392 189.446C703.169 191.524 703.169 194.849 701.392 196.823L623.021 288.455C621.243 290.429 618.4 290.429 616.712 288.455Z" fill="url(#paint2_linear)"/>
<path opacity="0.2" d="M52.2049 361.802C50.4278 359.724 50.4278 356.4 52.2049 354.426L130.576 262.794C132.354 260.716 135.197 260.716 136.885 262.794C138.662 264.871 138.662 268.196 136.885 270.17L58.5137 361.802C56.7366 363.88 53.9821 363.88 52.2049 361.802Z" fill="url(#paint3_linear)"/>
<path opacity="0.5" d="M6.79899 270.897C3.067 266.534 3.067 259.365 6.79899 255.002L25.7255 232.873C29.4575 228.51 35.5886 228.51 39.3206 232.873C43.0525 237.236 43.0525 244.405 39.3206 248.768L20.3941 270.897C16.5732 275.261 10.531 275.261 6.79899 270.897Z" fill="url(#paint4_linear)"/>
<path opacity="0.5" d="M286.875 65.0881C283.143 60.7246 283.143 53.5561 286.875 49.1927L326.15 3.27258C329.882 -1.09086 336.013 -1.09086 339.745 3.27258C343.477 7.63603 343.477 14.8045 339.745 19.168L300.47 65.0881C296.738 69.4515 290.607 69.4515 286.875 65.0881Z" fill="url(#paint5_linear)"/>
<path opacity="0.2" d="M671.803 273.702C668.071 269.339 668.071 262.17 671.803 257.807L693.04 232.977C696.772 228.613 702.903 228.613 706.635 232.977C710.367 237.34 710.367 244.509 706.635 248.872L685.398 273.702C681.577 278.066 675.535 278.066 671.803 273.702Z" fill="url(#paint6_linear)"/>
<path opacity="0.5" d="M374.221 559.197C370.489 554.833 370.489 547.665 374.221 543.301L430.289 477.746C434.021 473.382 440.153 473.382 443.885 477.746C447.616 482.109 447.616 489.278 443.885 493.641L387.816 559.197C384.084 563.56 378.042 563.56 374.221 559.197Z" fill="url(#paint7_linear)"/>
<path opacity="0.5" d="M16.2182 435.877C17.1068 436.916 18.6173 436.916 19.5059 435.877L104.719 336.245C105.608 335.206 105.608 333.44 104.719 332.401C103.831 331.362 102.32 331.362 101.432 332.401L16.2182 432.137C15.3296 433.176 15.3296 434.838 16.2182 435.877Z" fill="url(#paint8_linear)"/>
<path opacity="0.2" d="M12.6635 214.796C13.5521 215.835 15.0626 215.835 15.9512 214.796L79.3948 140.617C80.2834 139.578 80.2834 137.812 79.3948 136.773C78.5063 135.734 76.9957 135.734 76.1071 136.773L12.6635 210.952C11.7749 211.991 11.7749 213.653 12.6635 214.796Z" fill="url(#paint9_linear)"/>
<path opacity="0.2" d="M245.468 149.76C246.357 150.799 247.867 150.799 248.756 149.76L339.212 43.9983C340.101 42.9594 340.101 41.1932 339.212 40.1543C338.323 39.1154 336.813 39.1154 335.924 40.1543L245.468 145.916C244.58 146.955 244.58 148.721 245.468 149.76Z" fill="url(#paint10_linear)"/>
<path opacity="0.5" d="M378.131 395.567C379.02 396.606 380.53 396.606 381.419 395.567L471.875 289.806C472.764 288.767 472.764 287 471.875 285.962C470.986 284.923 469.476 284.923 468.587 285.962L378.131 391.723C377.243 392.866 377.243 394.528 378.131 395.567Z" fill="url(#paint11_linear)"/>
<path opacity="0.5" d="M612.091 59.3738C612.98 60.4127 614.49 60.4127 615.379 59.3738L650.3 18.5444C651.188 17.5055 651.188 15.7394 650.3 14.7005C649.411 13.6615 647.901 13.6615 647.012 14.7005L612.091 55.5298C611.203 56.5688 611.203 58.231 612.091 59.3738Z" fill="url(#paint12_linear)"/>
<path opacity="0.2" d="M416.695 548.911C417.583 549.95 419.094 549.95 419.982 548.911L498.798 456.759C499.687 455.721 499.687 453.954 498.798 452.915C497.91 451.877 496.399 451.877 495.511 452.915L416.695 545.067C415.806 546.106 415.806 547.872 416.695 548.911Z" fill="url(#paint13_linear)"/>
<path d="M55.5817 43.6866C55.5817 44.6216 54.9597 45.4527 54.0711 45.4527C53.1825 45.4527 52.5605 44.7255 52.5605 43.6866C52.5605 42.7515 53.1825 41.9204 54.0711 41.9204C54.9597 41.9204 55.5817 42.7515 55.5817 43.6866Z" fill="white"/>
<path d="M69.5319 43.6866C69.5319 44.6216 68.9099 45.4527 68.0213 45.4527C67.1327 45.4527 66.5107 44.7255 66.5107 43.6866C66.5107 42.7515 67.1327 41.9204 68.0213 41.9204C68.9099 41.9204 69.5319 42.7515 69.5319 43.6866Z" fill="white"/>
<path d="M83.4831 43.6866C83.4831 44.6216 82.8611 45.4527 81.9725 45.4527C81.0839 45.4527 80.4619 44.7255 80.4619 43.6866C80.4619 42.7515 81.0839 41.9204 81.9725 41.9204C82.8611 41.9204 83.4831 42.7515 83.4831 43.6866Z" fill="white"/>
<path d="M97.4333 43.6866C97.4333 44.6216 96.8113 45.4527 95.9227 45.4527C95.0341 45.4527 94.4121 44.7255 94.4121 43.6866C94.4121 42.7515 95.0341 41.9204 95.9227 41.9204C96.8113 41.9204 97.4333 42.7515 97.4333 43.6866Z" fill="white"/>
<path d="M111.472 43.6866C111.472 44.6216 110.85 45.4527 109.962 45.4527C109.073 45.4527 108.451 44.7255 108.451 43.6866C108.451 42.7515 109.073 41.9204 109.962 41.9204C110.85 41.9204 111.472 42.7515 111.472 43.6866Z" fill="white"/>
<path d="M125.423 43.6866C125.423 44.6216 124.801 45.4527 123.913 45.4527C123.024 45.4527 122.402 44.7255 122.402 43.6866C122.402 42.7515 123.024 41.9204 123.913 41.9204C124.801 41.9204 125.423 42.7515 125.423 43.6866Z" fill="white"/>
<path d="M139.374 43.6866C139.374 44.6216 138.752 45.4527 137.863 45.4527C136.975 45.4527 136.353 44.7255 136.353 43.6866C136.353 42.7515 136.975 41.9204 137.863 41.9204C138.752 41.9204 139.374 42.7515 139.374 43.6866Z" fill="white"/>
<path d="M153.324 43.6866C153.324 44.6216 152.702 45.4527 151.813 45.4527C151.014 45.4527 150.303 44.7255 150.303 43.6866C150.303 42.7515 150.925 41.9204 151.813 41.9204C152.702 42.0243 153.324 42.7515 153.324 43.6866Z" fill="white"/>
<path d="M167.274 43.6866C167.274 44.6216 166.652 45.4527 165.764 45.4527C164.875 45.4527 164.253 44.7255 164.253 43.6866C164.253 42.7515 164.875 41.9204 165.764 41.9204C166.652 41.9204 167.274 42.7515 167.274 43.6866Z" fill="white"/>
<path d="M181.314 43.6866C181.314 44.6216 180.692 45.4527 179.804 45.4527C178.915 45.4527 178.293 44.7255 178.293 43.6866C178.293 42.7515 178.915 41.9204 179.804 41.9204C180.692 41.9204 181.314 42.7515 181.314 43.6866Z" fill="white"/>
<path d="M195.264 43.6866C195.264 44.6216 194.642 45.4527 193.754 45.4527C192.865 45.4527 192.243 44.7255 192.243 43.6866C192.243 42.7515 192.865 41.9204 193.754 41.9204C194.642 41.9204 195.264 42.7515 195.264 43.6866Z" fill="white"/>
<path d="M55.5817 58.4396C55.5817 59.3746 54.9597 60.2058 54.0711 60.2058C53.1825 60.2058 52.5605 59.4785 52.5605 58.4396C52.5605 57.5046 53.1825 56.6735 54.0711 56.6735C54.9597 56.6735 55.5817 57.4007 55.5817 58.4396Z" fill="white"/>
<path d="M69.5319 58.4396C69.5319 59.3746 68.9099 60.2058 68.0213 60.2058C67.1327 60.2058 66.5107 59.4785 66.5107 58.4396C66.5107 57.5046 67.1327 56.6735 68.0213 56.6735C68.9099 56.6735 69.5319 57.4007 69.5319 58.4396Z" fill="white"/>
<path d="M83.4831 58.4396C83.4831 59.3746 82.8611 60.2058 81.9725 60.2058C81.0839 60.2058 80.4619 59.4785 80.4619 58.4396C80.4619 57.5046 81.0839 56.6735 81.9725 56.6735C82.8611 56.6735 83.4831 57.4007 83.4831 58.4396Z" fill="white"/>
<path d="M97.4333 58.4396C97.4333 59.3746 96.8113 60.2058 95.9227 60.2058C95.0341 60.2058 94.4121 59.4785 94.4121 58.4396C94.4121 57.5046 95.0341 56.6735 95.9227 56.6735C96.8113 56.6735 97.4333 57.4007 97.4333 58.4396Z" fill="white"/>
<path d="M111.472 58.4396C111.472 59.3746 110.85 60.2058 109.962 60.2058C109.073 60.2058 108.451 59.4785 108.451 58.4396C108.451 57.5046 109.073 56.6735 109.962 56.6735C110.85 56.6735 111.472 57.4007 111.472 58.4396Z" fill="white"/>
<path d="M125.423 58.4396C125.423 59.3746 124.801 60.2058 123.913 60.2058C123.024 60.2058 122.402 59.4785 122.402 58.4396C122.402 57.5046 123.024 56.6735 123.913 56.6735C124.801 56.6735 125.423 57.4007 125.423 58.4396Z" fill="white"/>
<path d="M139.374 58.4396C139.374 59.3746 138.752 60.2058 137.863 60.2058C136.975 60.2058 136.353 59.4785 136.353 58.4396C136.353 57.5046 136.975 56.6735 137.863 56.6735C138.752 56.6735 139.374 57.4007 139.374 58.4396Z" fill="white"/>
<path d="M153.324 58.4396C153.324 59.3746 152.702 60.2058 151.813 60.2058C151.014 60.2058 150.303 59.4785 150.303 58.4396C150.303 57.5046 150.925 56.6735 151.813 56.6735C152.702 56.6735 153.324 57.4007 153.324 58.4396Z" fill="white"/>
<path d="M167.274 58.4396C167.274 59.3746 166.652 60.2058 165.764 60.2058C164.875 60.2058 164.253 59.4785 164.253 58.4396C164.253 57.5046 164.875 56.6735 165.764 56.6735C166.652 56.6735 167.274 57.4007 167.274 58.4396Z" fill="white"/>
<path d="M181.314 58.4396C181.314 59.3746 180.692 60.2058 179.804 60.2058C178.915 60.2058 178.293 59.4785 178.293 58.4396C178.293 57.5046 178.915 56.6735 179.804 56.6735C180.692 56.6735 181.314 57.4007 181.314 58.4396Z" fill="white"/>
<path d="M195.264 58.4396C195.264 59.3746 194.642 60.2058 193.754 60.2058C192.865 60.2058 192.243 59.4785 192.243 58.4396C192.243 57.5046 192.865 56.6735 193.754 56.6735C194.642 56.6735 195.264 57.4007 195.264 58.4396Z" fill="white"/>
<path d="M55.5817 73.0879C55.5817 74.023 54.9597 74.8541 54.0711 74.8541C53.1825 74.8541 52.5605 74.1269 52.5605 73.0879C52.5605 72.1529 53.1825 71.3218 54.0711 71.3218C54.9597 71.3218 55.5817 72.049 55.5817 73.0879Z" fill="white"/>
<path d="M69.5319 73.0879C69.5319 74.023 68.9099 74.8541 68.0213 74.8541C67.1327 74.8541 66.5107 74.1269 66.5107 73.0879C66.5107 72.1529 67.1327 71.3218 68.0213 71.3218C68.9099 71.3218 69.5319 72.049 69.5319 73.0879Z" fill="white"/>
<path d="M83.4831 73.0879C83.4831 74.023 82.8611 74.8541 81.9725 74.8541C81.0839 74.8541 80.4619 74.1269 80.4619 73.0879C80.4619 72.1529 81.0839 71.3218 81.9725 71.3218C82.8611 71.3218 83.4831 72.049 83.4831 73.0879Z" fill="white"/>
<path d="M97.4333 73.0879C97.4333 74.023 96.8113 74.8541 95.9227 74.8541C95.0341 74.8541 94.4121 74.1269 94.4121 73.0879C94.4121 72.1529 95.0341 71.3218 95.9227 71.3218C96.8113 71.3218 97.4333 72.049 97.4333 73.0879Z" fill="white"/>
<path d="M111.472 73.0879C111.472 74.023 110.85 74.8541 109.962 74.8541C109.073 74.8541 108.451 74.1269 108.451 73.0879C108.451 72.1529 109.073 71.3218 109.962 71.3218C110.85 71.3218 111.472 72.049 111.472 73.0879Z" fill="white"/>
<path d="M125.423 73.0879C125.423 74.023 124.801 74.8541 123.913 74.8541C123.024 74.8541 122.402 74.1269 122.402 73.0879C122.402 72.1529 123.024 71.3218 123.913 71.3218C124.801 71.3218 125.423 72.049 125.423 73.0879Z" fill="white"/>
<path d="M139.374 73.0879C139.374 74.023 138.752 74.8541 137.863 74.8541C136.975 74.8541 136.353 74.1269 136.353 73.0879C136.353 72.1529 136.975 71.3218 137.863 71.3218C138.752 71.3218 139.374 72.049 139.374 73.0879Z" fill="white"/>
<path d="M153.324 73.0879C153.324 74.023 152.702 74.8541 151.813 74.8541C151.014 74.8541 150.303 74.1269 150.303 73.0879C150.303 72.1529 150.925 71.3218 151.813 71.3218C152.702 71.3218 153.324 72.049 153.324 73.0879Z" fill="white"/>
<path d="M167.274 73.0879C167.274 74.023 166.652 74.8541 165.764 74.8541C164.875 74.8541 164.253 74.1269 164.253 73.0879C164.253 72.1529 164.875 71.3218 165.764 71.3218C166.652 71.3218 167.274 72.049 167.274 73.0879Z" fill="white"/>
<path d="M181.314 73.0879C181.314 74.023 180.692 74.8541 179.804 74.8541C178.915 74.8541 178.293 74.1269 178.293 73.0879C178.293 72.1529 178.915 71.3218 179.804 71.3218C180.692 71.3218 181.314 72.049 181.314 73.0879Z" fill="white"/>
<path d="M195.264 73.0879C195.264 74.023 194.642 74.8541 193.754 74.8541C192.865 74.8541 192.243 74.1269 192.243 73.0879C192.243 72.1529 192.865 71.3218 193.754 71.3218C194.642 71.3218 195.264 72.049 195.264 73.0879Z" fill="white"/>
<path d="M54.0711 89.5028C54.9054 89.5028 55.5817 88.7121 55.5817 87.7366C55.5817 86.7612 54.9054 85.9705 54.0711 85.9705C53.2369 85.9705 52.5605 86.7612 52.5605 87.7366C52.5605 88.7121 53.2369 89.5028 54.0711 89.5028Z" fill="white"/>
<path d="M68.0213 89.5028C68.8556 89.5028 69.5319 88.7121 69.5319 87.7366C69.5319 86.7612 68.8556 85.9705 68.0213 85.9705C67.187 85.9705 66.5107 86.7612 66.5107 87.7366C66.5107 88.7121 67.187 89.5028 68.0213 89.5028Z" fill="white"/>
<path d="M83.4831 87.7366C83.4831 88.6717 82.8611 89.5028 81.9725 89.5028C81.0839 89.5028 80.4619 88.7756 80.4619 87.7366C80.4619 86.6977 81.0839 85.9705 81.9725 85.9705C82.8611 85.9705 83.4831 86.8016 83.4831 87.7366Z" fill="white"/>
<path d="M96.0115 89.5028C96.8458 89.5028 97.5221 88.7121 97.5221 87.7366C97.5221 86.7612 96.8458 85.9705 96.0115 85.9705C95.1773 85.9705 94.501 86.7612 94.501 87.7366C94.501 88.7121 95.1773 89.5028 96.0115 89.5028Z" fill="white"/>
<path d="M109.962 89.5028C110.796 89.5028 111.472 88.7121 111.472 87.7366C111.472 86.7612 110.796 85.9705 109.962 85.9705C109.127 85.9705 108.451 86.7612 108.451 87.7366C108.451 88.7121 109.127 89.5028 109.962 89.5028Z" fill="white"/>
<path d="M123.913 89.5028C124.747 89.5028 125.423 88.7121 125.423 87.7366C125.423 86.7612 124.747 85.9705 123.913 85.9705C123.079 85.9705 122.402 86.7612 122.402 87.7366C122.402 88.7121 123.079 89.5028 123.913 89.5028Z" fill="white"/>
<path d="M137.863 89.5028C138.697 89.5028 139.374 88.7121 139.374 87.7366C139.374 86.7612 138.697 85.9705 137.863 85.9705C137.029 85.9705 136.353 86.7612 136.353 87.7366C136.353 88.7121 137.029 89.5028 137.863 89.5028Z" fill="white"/>
<path d="M151.902 89.5028C152.736 89.5028 153.413 88.7121 153.413 87.7366C153.413 86.7612 152.736 85.9705 151.902 85.9705C151.068 85.9705 150.392 86.7612 150.392 87.7366C150.392 88.7121 151.068 89.5028 151.902 89.5028Z" fill="white"/>
<path d="M165.853 89.5028C166.688 89.5028 167.364 88.7121 167.364 87.7366C167.364 86.7612 166.688 85.9705 165.853 85.9705C165.019 85.9705 164.343 86.7612 164.343 87.7366C164.343 88.7121 165.019 89.5028 165.853 89.5028Z" fill="white"/>
<path d="M181.314 87.7366C181.314 88.6717 180.692 89.5028 179.804 89.5028C178.915 89.5028 178.293 88.7756 178.293 87.7366C178.293 86.6977 178.915 85.9705 179.804 85.9705C180.692 85.9705 181.314 86.8016 181.314 87.7366Z" fill="white"/>
<path d="M195.264 87.7366C195.264 88.6717 194.642 89.5028 193.754 89.5028C192.865 89.5028 192.243 88.7756 192.243 87.7366C192.243 86.6977 192.865 85.9705 193.754 85.9705C194.642 85.9705 195.264 86.8016 195.264 87.7366Z" fill="white"/>
<path d="M54.0711 104.152C54.9054 104.152 55.5817 103.361 55.5817 102.386C55.5817 101.41 54.9054 100.62 54.0711 100.62C53.2369 100.62 52.5605 101.41 52.5605 102.386C52.5605 103.361 53.2369 104.152 54.0711 104.152Z" fill="white"/>
<path d="M68.0213 104.152C68.8556 104.152 69.5319 103.361 69.5319 102.386C69.5319 101.41 68.8556 100.62 68.0213 100.62C67.187 100.62 66.5107 101.41 66.5107 102.386C66.5107 103.361 67.187 104.152 68.0213 104.152Z" fill="white"/>
<path d="M83.4831 102.386C83.4831 103.321 82.8611 104.152 81.9725 104.152C81.0839 104.152 80.4619 103.425 80.4619 102.386C80.4619 101.347 81.0839 100.62 81.9725 100.62C82.8611 100.62 83.4831 101.451 83.4831 102.386Z" fill="white"/>
<path d="M96.0115 104.152C96.8458 104.152 97.5221 103.361 97.5221 102.386C97.5221 101.41 96.8458 100.62 96.0115 100.62C95.1773 100.62 94.501 101.41 94.501 102.386C94.501 103.361 95.1773 104.152 96.0115 104.152Z" fill="white"/>
<path d="M109.962 104.152C110.796 104.152 111.472 103.361 111.472 102.386C111.472 101.41 110.796 100.62 109.962 100.62C109.127 100.62 108.451 101.41 108.451 102.386C108.451 103.361 109.127 104.152 109.962 104.152Z" fill="white"/>
<path d="M123.913 104.152C124.747 104.152 125.423 103.361 125.423 102.386C125.423 101.41 124.747 100.62 123.913 100.62C123.079 100.62 122.402 101.41 122.402 102.386C122.402 103.361 123.079 104.152 123.913 104.152Z" fill="white"/>
<path d="M137.863 104.152C138.697 104.152 139.374 103.361 139.374 102.386C139.374 101.41 138.697 100.62 137.863 100.62C137.029 100.62 136.353 101.41 136.353 102.386C136.353 103.361 137.029 104.152 137.863 104.152Z" fill="white"/>
<path d="M151.902 104.152C152.736 104.152 153.413 103.361 153.413 102.386C153.413 101.41 152.736 100.62 151.902 100.62C151.068 100.62 150.392 101.41 150.392 102.386C150.392 103.361 151.068 104.152 151.902 104.152Z" fill="white"/>
<path d="M165.853 104.152C166.688 104.152 167.364 103.361 167.364 102.386C167.364 101.41 166.688 100.62 165.853 100.62C165.019 100.62 164.343 101.41 164.343 102.386C164.343 103.361 165.019 104.152 165.853 104.152Z" fill="white"/>
<path d="M181.314 102.386C181.314 103.321 180.692 104.152 179.804 104.152C178.915 104.152 178.293 103.425 178.293 102.386C178.293 101.347 178.915 100.62 179.804 100.62C180.692 100.62 181.314 101.451 181.314 102.386Z" fill="white"/>
<path d="M195.264 102.386C195.264 103.321 194.642 104.152 193.754 104.152C192.865 104.152 192.243 103.425 192.243 102.386C192.243 101.347 192.865 100.62 193.754 100.62C194.642 100.62 195.264 101.451 195.264 102.386Z" fill="white"/>
<path d="M54.0711 118.8C54.9054 118.8 55.5817 118.009 55.5817 117.034C55.5817 116.059 54.9054 115.268 54.0711 115.268C53.2369 115.268 52.5605 116.059 52.5605 117.034C52.5605 118.009 53.2369 118.8 54.0711 118.8Z" fill="white"/>
<path d="M68.0213 118.8C68.8556 118.8 69.5319 118.009 69.5319 117.034C69.5319 116.059 68.8556 115.268 68.0213 115.268C67.187 115.268 66.5107 116.059 66.5107 117.034C66.5107 118.009 67.187 118.8 68.0213 118.8Z" fill="white"/>
<path d="M83.4831 117.034C83.4831 117.969 82.8611 118.8 81.9725 118.8C81.0839 118.8 80.4619 118.073 80.4619 117.034C80.4619 115.995 81.0839 115.268 81.9725 115.268C82.8611 115.268 83.4831 116.099 83.4831 117.034Z" fill="white"/>
<path d="M96.0115 118.8C96.8458 118.8 97.5221 118.009 97.5221 117.034C97.5221 116.059 96.8458 115.268 96.0115 115.268C95.1773 115.268 94.501 116.059 94.501 117.034C94.501 118.009 95.1773 118.8 96.0115 118.8Z" fill="white"/>
<path d="M109.962 118.8C110.796 118.8 111.472 118.009 111.472 117.034C111.472 116.059 110.796 115.268 109.962 115.268C109.127 115.268 108.451 116.059 108.451 117.034C108.451 118.009 109.127 118.8 109.962 118.8Z" fill="white"/>
<path d="M123.913 118.8C124.747 118.8 125.423 118.009 125.423 117.034C125.423 116.059 124.747 115.268 123.913 115.268C123.079 115.268 122.402 116.059 122.402 117.034C122.402 118.009 123.079 118.8 123.913 118.8Z" fill="white"/>
<path d="M137.863 118.8C138.697 118.8 139.374 118.009 139.374 117.034C139.374 116.059 138.697 115.268 137.863 115.268C137.029 115.268 136.353 116.059 136.353 117.034C136.353 118.009 137.029 118.8 137.863 118.8Z" fill="white"/>
<path d="M151.902 118.8C152.736 118.8 153.413 118.009 153.413 117.034C153.413 116.059 152.736 115.268 151.902 115.268C151.068 115.268 150.392 116.059 150.392 117.034C150.392 118.009 151.068 118.8 151.902 118.8Z" fill="white"/>
<path d="M165.853 118.8C166.688 118.8 167.364 118.009 167.364 117.034C167.364 116.059 166.688 115.268 165.853 115.268C165.019 115.268 164.343 116.059 164.343 117.034C164.343 118.009 165.019 118.8 165.853 118.8Z" fill="white"/>
<path d="M181.314 117.034C181.314 117.969 180.692 118.8 179.804 118.8C178.915 118.8 178.293 118.073 178.293 117.034C178.293 115.995 178.915 115.268 179.804 115.268C180.692 115.268 181.314 116.099 181.314 117.034Z" fill="white"/>
<path d="M195.264 117.034C195.264 117.969 194.642 118.8 193.754 118.8C192.865 118.8 192.243 118.073 192.243 117.034C192.243 115.995 192.865 115.268 193.754 115.268C194.642 115.268 195.264 116.099 195.264 117.034Z" fill="white"/>
<path d="M672.869 516.808C673.949 516.808 674.824 515.785 674.824 514.523C674.824 513.26 673.949 512.237 672.869 512.237C671.789 512.237 670.914 513.26 670.914 514.523C670.914 515.785 671.789 516.808 672.869 516.808Z" fill="white"/>
<path d="M672.869 495.095C673.949 495.095 674.824 494.072 674.824 492.81C674.824 491.547 673.949 490.524 672.869 490.524C671.789 490.524 670.914 491.547 670.914 492.81C670.914 494.072 671.789 495.095 672.869 495.095Z" fill="white"/>
<path d="M672.869 473.486C673.949 473.486 674.824 472.462 674.824 471.2C674.824 469.938 673.949 468.915 672.869 468.915C671.789 468.915 670.914 469.938 670.914 471.2C670.914 472.462 671.789 473.486 672.869 473.486Z" fill="white"/>
<path d="M672.869 451.772C673.949 451.772 674.824 450.749 674.824 449.487C674.824 448.224 673.949 447.201 672.869 447.201C671.789 447.201 670.914 448.224 670.914 449.487C670.914 450.749 671.789 451.772 672.869 451.772Z" fill="white"/>
<path d="M672.869 425.488C673.935 425.488 674.824 426.527 674.824 427.773C674.824 429.02 673.935 430.059 672.869 430.059C671.803 430.059 670.914 429.02 670.914 427.773C670.914 426.527 671.803 425.488 672.869 425.488Z" fill="white"/>
<path d="M672.869 408.449C673.949 408.449 674.824 407.426 674.824 406.164C674.824 404.901 673.949 403.878 672.869 403.878C671.789 403.878 670.914 404.901 670.914 406.164C670.914 407.426 671.789 408.449 672.869 408.449Z" fill="white"/>
<path d="M672.869 386.736C673.949 386.736 674.824 385.713 674.824 384.45C674.824 383.188 673.949 382.165 672.869 382.165C671.789 382.165 670.914 383.188 670.914 384.45C670.914 385.713 671.789 386.736 672.869 386.736Z" fill="white"/>
<path d="M672.869 365.127C673.949 365.127 674.824 364.103 674.824 362.841C674.824 361.579 673.949 360.555 672.869 360.555C671.789 360.555 670.914 361.579 670.914 362.841C670.914 364.103 671.789 365.127 672.869 365.127Z" fill="white"/>
<path d="M672.869 343.413C673.949 343.413 674.824 342.39 674.824 341.128C674.824 339.865 673.949 338.842 672.869 338.842C671.789 338.842 670.914 339.865 670.914 341.128C670.914 342.39 671.789 343.413 672.869 343.413Z" fill="white"/>
<path d="M672.869 321.7C673.949 321.7 674.824 320.677 674.824 319.415C674.824 318.152 673.949 317.129 672.869 317.129C671.789 317.129 670.914 318.152 670.914 319.415C670.914 320.677 671.789 321.7 672.869 321.7Z" fill="white"/>
<path d="M672.869 300.091C673.949 300.091 674.824 299.067 674.824 297.805C674.824 296.543 673.949 295.519 672.869 295.519C671.789 295.519 670.914 296.543 670.914 297.805C670.914 299.067 671.789 300.091 672.869 300.091Z" fill="white"/>
<path d="M341.433 516.808C342.513 516.808 343.388 515.785 343.388 514.523C343.388 513.261 342.513 512.237 341.433 512.237C340.354 512.237 339.479 513.261 339.479 514.523C339.479 515.785 340.354 516.808 341.433 516.808Z" fill="white"/>
<path d="M322.862 516.808C323.942 516.808 324.817 515.785 324.817 514.523C324.817 513.261 323.942 512.237 322.862 512.237C321.782 512.237 320.907 513.261 320.907 514.523C320.907 515.785 321.782 516.808 322.862 516.808Z" fill="white"/>
<path d="M304.291 516.808C305.37 516.808 306.246 515.785 306.246 514.523C306.246 513.261 305.37 512.237 304.291 512.237C303.211 512.237 302.336 513.261 302.336 514.523C302.336 515.785 303.211 516.808 304.291 516.808Z" fill="white"/>
<path d="M285.809 516.808C286.889 516.808 287.764 515.785 287.764 514.523C287.764 513.261 286.889 512.237 285.809 512.237C284.73 512.237 283.854 513.261 283.854 514.523C283.854 515.785 284.73 516.808 285.809 516.808Z" fill="white"/>
<path d="M267.238 516.808C268.318 516.808 269.193 515.785 269.193 514.523C269.193 513.261 268.318 512.237 267.238 512.237C266.158 512.237 265.283 513.261 265.283 514.523C265.283 515.785 266.158 516.808 267.238 516.808Z" fill="white"/>
<path d="M248.667 516.808C249.746 516.808 250.622 515.785 250.622 514.523C250.622 513.261 249.746 512.237 248.667 512.237C247.587 512.237 246.712 513.261 246.712 514.523C246.712 515.785 247.587 516.808 248.667 516.808Z" fill="white"/>
<path d="M230.184 516.808C231.264 516.808 232.139 515.785 232.139 514.523C232.139 513.261 231.264 512.237 230.184 512.237C229.105 512.237 228.229 513.261 228.229 514.523C228.229 515.785 229.105 516.808 230.184 516.808Z" fill="white"/>
<path d="M211.614 516.808C212.694 516.808 213.569 515.785 213.569 514.523C213.569 513.261 212.694 512.237 211.614 512.237C210.534 512.237 209.659 513.261 209.659 514.523C209.659 515.785 210.534 516.808 211.614 516.808Z" fill="white"/>
<path d="M193.043 516.808C194.122 516.808 194.998 515.785 194.998 514.523C194.998 513.261 194.122 512.237 193.043 512.237C191.963 512.237 191.088 513.261 191.088 514.523C191.088 515.785 191.963 516.808 193.043 516.808Z" fill="white"/>
<path d="M174.56 516.808C175.64 516.808 176.515 515.785 176.515 514.523C176.515 513.261 175.64 512.237 174.56 512.237C173.481 512.237 172.605 513.261 172.605 514.523C172.605 515.785 173.481 516.808 174.56 516.808Z" fill="white"/>
<path d="M155.989 516.808C157.069 516.808 157.944 515.785 157.944 514.523C157.944 513.261 157.069 512.237 155.989 512.237C154.909 512.237 154.034 513.261 154.034 514.523C154.034 515.785 154.909 516.808 155.989 516.808Z" fill="white"/>
<g opacity="0.5">
<path opacity="0.5" d="M45.9844 441.383L63.8446 420.501C56.2918 425.28 50.0718 432.552 45.9844 441.383Z" fill="white"/>
<path opacity="0.5" d="M75.6629 415.412L41.6308 455.202C41.3642 456.553 41.1865 457.903 41.0088 459.254L79.1283 414.685C77.9732 414.788 76.8181 415.1 75.6629 415.412Z" fill="white"/>
<path opacity="0.5" d="M86.9487 414.269L40.7432 468.292C40.7432 469.331 40.832 470.37 40.9209 471.409L89.6144 414.476C88.7258 414.373 87.8372 414.269 86.9487 414.269Z" fill="white"/>
<path opacity="0.5" d="M95.9223 415.722L41.9863 478.784C42.164 479.615 42.3418 480.55 42.6083 481.381L98.1437 416.449C97.4329 416.241 96.6332 415.93 95.9223 415.722Z" fill="white"/>
<path opacity="0.5" d="M103.475 418.839L44.5635 487.719C44.83 488.446 45.1855 489.277 45.5409 490.004L105.43 419.981C104.808 419.566 104.186 419.254 103.475 418.839Z" fill="white"/>
<path opacity="0.5" d="M110.05 423.202L48.3838 495.407C48.7392 496.03 49.1835 496.757 49.5389 497.381L111.739 424.657C111.205 424.137 110.672 423.618 110.05 423.202Z" fill="white"/>
<path opacity="0.5" d="M115.738 428.604L52.916 502.056C53.3603 502.575 53.8934 503.199 54.3377 503.718L117.159 430.267C116.715 429.643 116.271 429.124 115.738 428.604Z" fill="white"/>
<path opacity="0.5" d="M120.624 434.942L58.4248 507.666C58.9579 508.186 59.4911 508.601 60.1131 509.017L121.868 436.812C121.424 436.189 120.98 435.565 120.624 434.942Z" fill="white"/>
<path opacity="0.5" d="M124.534 442.318L64.6445 512.341C65.2665 512.757 65.8885 513.068 66.5994 513.484L125.511 444.604C125.156 443.773 124.889 443.045 124.534 442.318Z" fill="white"/>
<path opacity="0.5" d="M127.555 450.837L72.0195 515.77C72.7304 516.081 73.5301 516.289 74.241 516.497L128.177 453.435C127.999 452.603 127.733 451.772 127.555 450.837Z" fill="white"/>
<path opacity="0.5" d="M129.243 460.811L80.5498 517.743C81.4384 517.847 82.3269 517.951 83.2155 517.951L129.421 463.928C129.421 462.889 129.332 461.85 129.243 460.811Z" fill="white"/>
<path opacity="0.5" d="M128.533 477.122C128.799 475.771 128.977 474.421 129.155 473.07L91.0352 517.64C92.1903 517.432 93.3454 517.224 94.5006 516.912L128.533 477.122Z" fill="white"/>
<path opacity="0.5" d="M124.09 490.939L106.229 511.822C113.782 507.043 120.002 499.77 124.09 490.939Z" fill="white"/>
</g>
<g opacity="0.5">
<path opacity="0.5" d="M594.408 95.1127L612.268 74.2305C604.716 79.0095 598.496 86.2819 594.408 95.1127Z" fill="white"/>
<path opacity="0.5" d="M623.998 69.1411L589.966 108.932C589.699 110.282 589.521 111.633 589.344 112.983L627.463 68.4138C626.308 68.5177 625.153 68.8294 623.998 69.1411Z" fill="white"/>
<path opacity="0.5" d="M635.284 67.9979L589.078 122.022C589.078 123.06 589.167 124.099 589.256 125.138L637.949 68.2057C637.061 68.1018 636.172 67.9979 635.284 67.9979Z" fill="white"/>
<path opacity="0.5" d="M644.257 69.4514L590.321 132.514C590.499 133.345 590.677 134.28 590.943 135.111L646.479 70.1787C645.768 69.9709 645.057 69.6592 644.257 69.4514Z" fill="white"/>
<path opacity="0.5" d="M651.898 72.5681L592.986 141.448C593.253 142.175 593.608 143.007 593.964 143.734L653.764 73.7109C653.142 73.2954 652.52 72.9837 651.898 72.5681Z" fill="white"/>
<path opacity="0.5" d="M658.474 76.9316L596.719 149.136C597.074 149.76 597.519 150.487 597.874 151.11L660.074 78.3861C659.541 77.8667 659.007 77.3472 658.474 76.9316Z" fill="white"/>
<path opacity="0.5" d="M664.161 82.3339L601.339 155.785C601.783 156.305 602.316 156.928 602.761 157.447L665.582 83.9961C665.049 83.3728 664.605 82.8533 664.161 82.3339Z" fill="white"/>
<path opacity="0.5" d="M668.959 88.6714L606.76 161.395C607.293 161.915 607.826 162.33 608.448 162.746L670.203 90.5414C669.759 89.9181 669.404 89.2947 668.959 88.6714Z" fill="white"/>
<path opacity="0.5" d="M672.958 96.0475L613.068 166.07C613.69 166.486 614.312 166.798 615.023 167.213L673.935 98.3331C673.58 97.502 673.224 96.7747 672.958 96.0475Z" fill="white"/>
<path opacity="0.5" d="M675.89 104.567L620.354 169.499C621.065 169.811 621.865 170.018 622.576 170.226L676.512 107.164C676.334 106.333 676.157 105.502 675.89 104.567Z" fill="white"/>
<path opacity="0.5" d="M677.667 114.54L628.974 171.473C629.862 171.577 630.751 171.681 631.639 171.681L677.845 117.657C677.756 116.618 677.756 115.579 677.667 114.54Z" fill="white"/>
<path opacity="0.5" d="M676.868 130.851C677.134 129.501 677.312 128.15 677.49 126.8L639.37 171.369C640.525 171.161 641.68 170.953 642.836 170.642L676.868 130.851Z" fill="white"/>
<path opacity="0.5" d="M672.514 144.669L654.653 165.551C662.206 160.772 668.426 153.5 672.514 144.669Z" fill="white"/>
</g>
<g opacity="0.5">
<path opacity="0.5" d="M523.146 414.475L549.98 383.1C538.607 390.373 529.277 401.281 523.146 414.475Z" fill="white"/>
<path opacity="0.5" d="M567.574 375.516L516.57 435.15C516.215 437.124 515.859 439.202 515.682 441.279L572.816 374.477C571.039 374.685 569.351 375.101 567.574 375.516Z" fill="white"/>
<path opacity="0.5" d="M584.458 373.855L515.149 454.89C515.238 456.449 515.327 458.007 515.416 459.566L588.456 374.167C587.123 373.959 585.79 373.855 584.458 373.855Z" fill="white"/>
<path opacity="0.5" d="M597.962 376.036L517.103 470.577C517.369 471.928 517.725 473.174 518.08 474.525L601.428 377.075C600.184 376.763 599.117 376.451 597.962 376.036Z" fill="white"/>
<path opacity="0.5" d="M609.336 380.71L521.102 483.979C521.546 485.121 521.99 486.264 522.523 487.407L612.357 382.373C611.291 381.853 610.314 381.334 609.336 380.71Z" fill="white"/>
<path opacity="0.5" d="M619.199 387.256L526.61 495.511C527.232 496.55 527.765 497.485 528.387 498.42L621.687 389.334C620.887 388.606 620.088 387.983 619.199 387.256Z" fill="white"/>
<path opacity="0.5" d="M627.73 395.36L533.542 505.485C534.253 506.316 534.964 507.147 535.675 507.978L629.863 397.853C629.152 397.022 628.441 396.191 627.73 395.36Z" fill="white"/>
<path opacity="0.5" d="M635.016 404.917L541.717 514.003C542.517 514.731 543.405 515.458 544.205 516.081L636.793 407.826C636.171 406.787 635.638 405.852 635.016 404.917Z" fill="white"/>
<path opacity="0.5" d="M640.97 415.93L551.136 520.964C552.113 521.588 553.091 522.107 554.068 522.627L642.392 419.358C641.947 418.216 641.414 417.073 640.97 415.93Z" fill="white"/>
<path opacity="0.5" d="M645.412 428.709L562.064 526.159C563.131 526.574 564.286 526.886 565.441 527.302L646.301 432.76C646.034 431.306 645.768 430.059 645.412 428.709Z" fill="white"/>
<path opacity="0.5" d="M647.988 443.773L574.948 529.172C576.281 529.379 577.614 529.483 578.947 529.483L648.255 448.448C648.255 446.89 648.166 445.331 647.988 443.773Z" fill="white"/>
<path opacity="0.5" d="M646.834 468.187C647.19 466.213 647.545 464.136 647.723 462.058L590.588 528.86C592.365 528.548 594.053 528.237 595.83 527.821L646.834 468.187Z" fill="white"/>
<path opacity="0.5" d="M640.347 488.862L613.513 520.133C624.798 512.964 634.127 502.056 640.347 488.862Z" fill="white"/>
</g>
<g opacity="0.5">
<path opacity="0.5" d="M178.292 201.706L192.598 184.979C186.556 188.823 181.58 194.641 178.292 201.706Z" fill="white"/>
<path opacity="0.5" d="M202.017 180.928L174.827 212.719C174.649 213.758 174.472 214.901 174.383 215.94L204.861 180.305C203.883 180.513 202.906 180.72 202.017 180.928Z" fill="white"/>
<path opacity="0.5" d="M210.992 179.992L174.027 223.211C174.027 224.042 174.116 224.873 174.205 225.705L213.213 180.096C212.413 180.096 211.703 180.096 210.992 179.992Z" fill="white"/>
<path opacity="0.5" d="M218.189 181.239L175.094 231.626C175.271 232.354 175.449 233.081 175.627 233.704L220.055 181.758C219.433 181.551 218.811 181.447 218.189 181.239Z" fill="white"/>
<path opacity="0.5" d="M224.32 183.733L177.226 238.795C177.492 239.419 177.67 240.042 177.936 240.561L225.83 184.564C225.297 184.252 224.853 184.044 224.32 183.733Z" fill="white"/>
<path opacity="0.5" d="M229.562 187.161L180.158 244.925C180.425 245.444 180.78 245.964 181.136 246.483L230.895 188.304C230.451 187.888 230.007 187.576 229.562 187.161Z" fill="white"/>
<path opacity="0.5" d="M234.095 191.524L183.802 250.327C184.157 250.742 184.513 251.262 184.957 251.677L235.25 192.875C234.894 192.355 234.45 191.94 234.095 191.524Z" fill="white"/>
<path opacity="0.5" d="M238.004 196.615L188.244 254.794C188.688 255.21 189.133 255.522 189.577 255.937L238.981 198.173C238.626 197.654 238.271 197.135 238.004 196.615Z" fill="white"/>
<path opacity="0.5" d="M241.114 202.537L193.221 258.431C193.754 258.742 194.198 259.054 194.731 259.262L241.825 204.199C241.648 203.68 241.381 203.056 241.114 202.537Z" fill="white"/>
<path opacity="0.5" d="M243.513 209.29L199.085 261.236C199.707 261.443 200.24 261.651 200.862 261.859L244.046 211.368C243.869 210.744 243.691 210.017 243.513 209.29Z" fill="white"/>
<path opacity="0.5" d="M244.935 217.289L205.927 262.898C206.638 263.002 207.348 263.002 208.059 263.106L245.024 219.887C245.024 218.952 244.935 218.121 244.935 217.289Z" fill="white"/>
<path opacity="0.5" d="M244.313 230.38C244.491 229.341 244.668 228.198 244.757 227.159L214.279 262.794C215.257 262.69 216.145 262.482 217.034 262.274L244.313 230.38Z" fill="white"/>
<path opacity="0.5" d="M240.759 241.392L226.453 258.119C232.495 254.275 237.471 248.457 240.759 241.392Z" fill="white"/>
</g>
<g opacity="0.5">
<path opacity="0.5" d="M197.575 457.902C194.642 457.902 192.243 455.097 192.243 451.668C192.243 448.24 194.642 445.435 197.575 445.435C200.507 445.435 202.906 448.24 202.906 451.668C202.906 455.097 200.507 457.902 197.575 457.902ZM197.575 447.513C195.62 447.513 194.02 449.383 194.02 451.668C194.02 453.954 195.62 455.824 197.575 455.824C199.529 455.824 201.129 453.954 201.129 451.668C201.129 449.383 199.529 447.513 197.575 447.513Z" fill="white"/>
</g>
<g opacity="0.5">
<path opacity="0.5" d="M509.728 234.535C506.796 234.535 504.396 231.73 504.396 228.302C504.396 224.873 506.796 222.068 509.728 222.068C512.66 222.068 515.059 224.873 515.059 228.302C515.059 231.73 512.66 234.535 509.728 234.535ZM509.728 224.146C507.773 224.146 506.174 226.016 506.174 228.302C506.174 230.587 507.773 232.457 509.728 232.457C511.683 232.457 513.282 230.587 513.282 228.302C513.282 226.016 511.683 224.146 509.728 224.146Z" fill="white"/>
</g>
<path d="M450.283 410.112C447.35 410.112 444.951 407.307 444.951 403.879C444.951 400.45 447.35 397.645 450.283 397.645C453.215 397.645 455.614 400.45 455.614 403.879C455.614 407.307 453.215 410.112 450.283 410.112ZM450.283 399.723C448.328 399.723 446.728 401.593 446.728 403.879C446.728 406.164 448.328 408.034 450.283 408.034C452.237 408.034 453.837 406.164 453.837 403.879C453.837 401.593 452.237 399.723 450.283 399.723Z" fill="white"/>
<g opacity="0.5">
<path opacity="0.5" d="M588.543 331.882C585.611 331.882 583.212 329.077 583.212 325.648C583.212 322.22 585.611 319.415 588.543 319.415C591.476 319.415 593.875 322.22 593.875 325.648C593.875 329.077 591.476 331.882 588.543 331.882ZM588.543 321.492C586.588 321.492 584.989 323.363 584.989 325.648C584.989 327.934 586.588 329.804 588.543 329.804C590.498 329.804 592.098 327.934 592.098 325.648C592.098 323.363 590.498 321.492 588.543 321.492Z" fill="white"/>
</g>
<g opacity="0.5">
<path opacity="0.5" d="M587.3 48.2579C584.368 48.2579 581.969 45.4528 581.969 42.0244C581.969 38.596 584.368 35.7909 587.3 35.7909C590.232 35.7909 592.632 38.596 592.632 42.0244C592.632 45.4528 590.232 48.2579 587.3 48.2579ZM587.3 37.8687C585.345 37.8687 583.746 39.7388 583.746 42.0244C583.746 44.31 585.345 46.18 587.3 46.18C589.255 46.18 590.854 44.31 590.854 42.0244C590.854 39.7388 589.255 37.8687 587.3 37.8687Z" fill="white"/>
</g>
<g opacity="0.5">
<path opacity="0.5" d="M144.704 232.042C141.772 232.042 139.373 229.237 139.373 225.809C139.373 222.38 141.772 219.575 144.704 219.575C147.637 219.575 150.036 222.38 150.036 225.809C150.036 229.237 147.637 232.042 144.704 232.042ZM144.704 221.653C142.75 221.653 141.15 223.523 141.15 225.809C141.15 228.094 142.75 229.964 144.704 229.964C146.659 229.964 148.259 228.094 148.259 225.809C148.259 223.419 146.659 221.653 144.704 221.653Z" fill="white"/>
</g>
<g opacity="0.5">
<path opacity="0.5" d="M350.319 84.9313C347.386 84.9313 344.987 82.1263 344.987 78.6979C344.987 75.2694 347.386 72.4644 350.319 72.4644C353.251 72.4644 355.65 75.2694 355.65 78.6979C355.65 82.1263 353.251 84.9313 350.319 84.9313ZM350.319 74.5422C348.364 74.5422 346.764 76.4122 346.764 78.6979C346.764 80.9835 348.364 82.8535 350.319 82.8535C352.274 82.8535 353.873 80.9835 353.873 78.6979C353.873 76.4122 352.274 74.5422 350.319 74.5422Z" fill="white"/>
</g>
<path d="M249.466 394.217L239.692 402.632C239.514 402.736 239.337 402.84 239.07 402.736C238.892 402.632 238.715 402.424 238.715 402.217L237.382 388.087C237.293 387.568 237.826 387.152 238.182 387.36L249.289 393.074C249.466 393.178 249.644 393.386 249.644 393.594C249.733 393.801 249.644 394.009 249.466 394.217ZM239.781 400.762L247.956 393.801L238.715 389.022L239.781 400.762Z" fill="white"/>
<path d="M113.871 402.32L105.163 392.451C104.985 392.243 104.985 392.035 104.985 391.827C105.074 391.619 105.163 391.412 105.43 391.308L117.159 387.464C117.603 387.36 117.958 387.775 117.87 388.295L114.848 402.009C114.76 402.216 114.671 402.424 114.404 402.528C114.226 402.632 114.049 402.528 113.871 402.32ZM106.762 392.347L113.96 400.554L116.448 389.126L106.762 392.347Z" fill="white"/>
<path d="M86.5925 179.992H74.508C74.3303 179.992 74.0637 179.888 73.9748 179.681C73.886 179.473 73.886 179.161 73.9748 178.953L80.0171 166.694C80.1948 166.279 80.8168 166.279 81.0834 166.694L87.1256 178.953C87.2145 179.161 87.2145 179.473 87.1256 179.681C87.0368 179.888 86.8591 179.992 86.5925 179.992ZM75.4854 178.642H85.6151L80.5502 168.46L75.4854 178.642Z" fill="white"/>
<g opacity="0.5">
<path opacity="0.5" d="M497.554 512.445L490.268 501.121C490.179 500.913 490.091 500.705 490.179 500.394C490.268 500.186 490.446 499.978 490.624 499.978L502.708 498.316C503.152 498.212 503.508 498.835 503.33 499.251L498.532 512.341C498.443 512.549 498.265 512.757 498.088 512.757C497.821 512.757 497.643 512.653 497.554 512.445ZM491.779 501.225L497.821 510.679L501.82 499.77L491.779 501.225Z" fill="white"/>
</g>
<path d="M466.633 68.6206L477.118 61.4521C477.296 61.3482 477.562 61.3482 477.74 61.4521C477.918 61.556 478.006 61.7637 478.006 62.0754L478.095 76.3086C478.095 76.828 477.562 77.1397 477.207 76.9319L466.633 69.8673C466.455 69.7634 466.366 69.5556 466.366 69.2439C466.366 68.9323 466.455 68.7245 466.633 68.6206ZM476.851 63.2182L468.143 69.14L476.94 74.958L476.851 63.2182Z" fill="white"/>
<path d="M325.262 183.836L315.31 175.733C315.132 175.629 315.043 175.317 315.043 175.109C315.043 174.902 315.221 174.694 315.398 174.59L326.417 168.564C326.772 168.357 327.305 168.772 327.216 169.292L326.15 183.421C326.15 183.629 325.972 183.836 325.795 183.94C325.617 183.94 325.439 183.94 325.262 183.836ZM316.82 175.213L325.084 181.966L325.972 170.227L316.82 175.213Z" fill="white"/>
<path d="M660.518 207.108L652.254 217.497C652.077 217.705 651.899 217.705 651.721 217.705C651.544 217.601 651.366 217.497 651.277 217.185L647.723 203.576C647.634 203.056 647.989 202.641 648.434 202.745L660.251 205.861C660.429 205.965 660.607 206.069 660.696 206.381C660.696 206.692 660.607 207.004 660.518 207.108ZM652.077 215.731L658.919 207.108L649.056 204.511L652.077 215.731Z" fill="white"/>
<path d="M227.608 42.0245L237.738 34.1287C237.916 34.0248 238.093 34.0248 238.36 34.1287C238.538 34.2326 238.715 34.4404 238.715 34.752L239.426 48.7774C239.426 49.2969 238.982 49.7124 238.538 49.4008L227.608 43.1673C227.431 43.0634 227.253 42.8556 227.253 42.5439C227.342 42.3361 227.431 42.1284 227.608 42.0245ZM237.471 35.8949L229.119 42.44L238.182 47.6346L237.471 35.8949Z" fill="white"/>
<g opacity="0.5">
<path opacity="0.5" d="M556.2 161.499H547.314C546.781 161.499 546.426 161.084 546.426 160.461V150.071C546.426 149.448 546.781 149.032 547.314 149.032H556.2C556.733 149.032 557.089 149.448 557.089 150.071V160.461C557.089 160.98 556.733 161.499 556.2 161.499ZM548.203 159.422H555.311V151.11H548.203V159.422Z" fill="white"/>
</g>
<g opacity="0.5">
<path opacity="0.5" d="M51.0496 311.207C50.8719 311.415 50.6942 311.519 50.4276 311.519H41.5419C41.2753 311.519 41.0976 311.415 40.9199 311.207C40.7422 310.999 40.6533 310.792 40.6533 310.48V300.091C40.6533 299.467 41.0087 299.052 41.5419 299.052H50.4276C50.6942 299.052 50.8719 299.156 51.0496 299.364C51.2273 299.571 51.3162 299.779 51.3162 300.091V310.48C51.3162 310.792 51.2273 310.999 51.0496 311.207ZM42.4305 309.441H49.539V301.13H42.4305V309.441Z" fill="white"/>
</g>
<path d="M382.485 502.056C382.307 502.264 382.13 502.368 381.863 502.368H372.977C372.711 502.368 372.533 502.264 372.355 502.056C372.178 501.848 372.089 501.64 372.089 501.329V490.939C372.089 490.316 372.444 489.901 372.977 489.901H381.863C382.13 489.901 382.307 490.004 382.485 490.212C382.663 490.42 382.752 490.628 382.752 490.939V501.329C382.752 501.64 382.663 501.848 382.485 502.056ZM373.866 500.29H380.975V491.978H373.866V500.29Z" fill="white"/>
<g opacity="0.5">
<path opacity="0.5" d="M399.546 311.207C399.368 311.415 399.19 311.519 398.924 311.519H390.038C389.771 311.519 389.594 311.415 389.416 311.207C389.238 310.999 389.149 310.792 389.149 310.48V300.091C389.149 299.467 389.505 299.052 390.038 299.052H398.924C399.19 299.052 399.368 299.156 399.546 299.364C399.723 299.571 399.812 299.779 399.812 300.091V310.48C399.812 310.792 399.723 310.999 399.546 311.207ZM390.927 309.441H398.035V301.13H390.927V309.441Z" fill="white"/>
</g>
</g>
<defs>
<filter id="filter0_d" x="0" y="0" width="713.434" height="570.469" filterUnits="userSpaceOnUse" color-interpolation-filters="sRGB">
<feFlood flood-opacity="0" result="BackgroundImageFix"/>
<feColorMatrix in="SourceAlpha" type="matrix" values="0 0 0 0 0 0 0 0 0 0 0 0 0 0 0 0 0 0 127 0"/>
<feOffset dy="4"/>
<feGaussianBlur stdDeviation="2"/>
<feColorMatrix type="matrix" values="0 0 0 0 0 0 0 0 0 0 0 0 0 0 0 0 0 0 0.25 0"/>
<feBlend mode="normal" in2="BackgroundImageFix" result="effect1_dropShadow"/>
<feBlend mode="normal" in="SourceGraphic" in2="effect1_dropShadow" result="shape"/>
</filter>
<linearGradient id="paint0_linear" x1="491.852" y1="81.9728" x2="562.136" y2="21.8595" gradientUnits="userSpaceOnUse">
<stop stop-color="white" stop-opacity="0"/>
<stop offset="1" stop-color="white"/>
</linearGradient>
<linearGradient id="paint1_linear" x1="459.094" y1="355.587" x2="556.946" y2="271.896" gradientUnits="userSpaceOnUse">
<stop stop-color="white" stop-opacity="0"/>
<stop offset="1" stop-color="white"/>
</linearGradient>
<linearGradient id="paint2_linear" x1="616.67" y1="288.408" x2="714.521" y2="204.717" gradientUnits="userSpaceOnUse">
<stop stop-color="white" stop-opacity="0"/>
<stop offset="1" stop-color="white"/>
</linearGradient>
<linearGradient id="paint3_linear" x1="52.1918" y1="361.85" x2="150.043" y2="278.159" gradientUnits="userSpaceOnUse">
<stop stop-color="white" stop-opacity="0"/>
<stop offset="1" stop-color="white"/>
</linearGradient>
<linearGradient id="paint4_linear" x1="6.77029" y1="270.893" x2="44.348" y2="238.753" gradientUnits="userSpaceOnUse">
<stop stop-color="white" stop-opacity="0"/>
<stop offset="1" stop-color="white"/>
</linearGradient>
<linearGradient id="paint5_linear" x1="286.858" y1="65.0903" x2="347.961" y2="12.8297" gradientUnits="userSpaceOnUse">
<stop stop-color="white" stop-opacity="0"/>
<stop offset="1" stop-color="white"/>
</linearGradient>
<linearGradient id="paint6_linear" x1="671.773" y1="273.68" x2="712.035" y2="239.245" gradientUnits="userSpaceOnUse">
<stop stop-color="white" stop-opacity="0"/>
<stop offset="1" stop-color="white"/>
</linearGradient>
<linearGradient id="paint7_linear" x1="374.264" y1="559.214" x2="454.764" y2="490.364" gradientUnits="userSpaceOnUse">
<stop stop-color="white" stop-opacity="0"/>
<stop offset="1" stop-color="white"/>
</linearGradient>
<linearGradient id="paint8_linear" x1="16.1953" y1="435.903" x2="118.393" y2="348.495" gradientUnits="userSpaceOnUse">
<stop stop-color="white" stop-opacity="0"/>
<stop offset="1" stop-color="white"/>
</linearGradient>
<linearGradient id="paint9_linear" x1="12.669" y1="214.745" x2="89.711" y2="148.852" gradientUnits="userSpaceOnUse">
<stop stop-color="white" stop-opacity="0"/>
<stop offset="1" stop-color="white"/>
</linearGradient>
<linearGradient id="paint10_linear" x1="245.447" y1="149.769" x2="353.723" y2="57.162" gradientUnits="userSpaceOnUse">
<stop stop-color="white" stop-opacity="0"/>
<stop offset="1" stop-color="white"/>
</linearGradient>
<linearGradient id="paint11_linear" x1="378.112" y1="395.586" x2="486.389" y2="302.979" gradientUnits="userSpaceOnUse">
<stop stop-color="white" stop-opacity="0"/>
<stop offset="1" stop-color="white"/>
</linearGradient>
<linearGradient id="paint12_linear" x1="612.075" y1="59.3367" x2="656.196" y2="21.6008" gradientUnits="userSpaceOnUse">
<stop stop-color="white" stop-opacity="0"/>
<stop offset="1" stop-color="white"/>
</linearGradient>
<linearGradient id="paint13_linear" x1="416.683" y1="548.888" x2="511.532" y2="467.765" gradientUnits="userSpaceOnUse">
<stop stop-color="white" stop-opacity="0"/>
<stop offset="1" stop-color="white"/>
</linearGradient>
</defs>
</svg>
