<?xml version="1.0"?>
<svg xmlns="http://www.w3.org/2000/svg" xmlns:xlink="http://www.w3.org/1999/xlink" xmlns:svgjs="http://svgjs.com/svgjs" version="1.1" width="512" height="512" x="0" y="0" viewBox="0 0 512 512" style="enable-background:new 0 0 512 512" xml:space="preserve" class=""><g><g xmlns="http://www.w3.org/2000/svg"><path d="m415 227.984c-9.217 2.616-18.945 4.016-29 4.016-58.542 0-106-47.458-106-106s47.458-106 106-106c10.055 0 19.783 1.4 29 4.016-44.445 12.614-77 53.497-77 101.984s32.555 89.37 77 101.984zm-335 164.016v-169c0-55.229 44.771-100 100-100h-60c-55.229 0-100 44.771-100 100v169c0 55.228 44.771 100 100 100h60c-55.229 0-100-44.772-100-100z" fill="#84e7b3" data-original="#cee1f2" style="" class=""/><path d="m392 512h-272c-66.168 0-120-53.832-120-120v-169c0-66.168 53.832-120 120-120h80c11.046 0 20 8.954 20 20s-8.954 20-20 20h-80c-44.112 0-80 35.888-80 80v169c0 44.112 35.888 80 80 80h272c44.112 0 80-35.888 80-80v-115c0-11.046 8.954-20 20-20s20 8.954 20 20v115c0 66.168-53.832 120-120 120zm120-386c0-69.477-56.523-126-126-126s-126 56.523-126 126 56.523 126 126 126 126-56.523 126-126zm-40 0c0 47.42-38.58 86-86 86s-86-38.58-86-86 38.58-86 86-86 86 38.58 86 86z" fill="#0c924c" data-original="#1428bf" style="" class=""/><path d="m255.993 371.923c-25.675 0-51.346-8.17-72.767-24.508l-95.332-72.495c-8.792-6.686-10.5-19.234-3.814-28.026 6.687-8.793 19.234-10.501 28.026-3.814l95.355 72.512c28.588 21.805 68.49 21.804 97.055.018l33.333-25.496c8.774-6.71 21.327-5.038 28.037 3.735 6.711 8.773 5.039 21.326-3.735 28.036l-33.355 25.512c-21.438 16.352-47.122 24.526-72.803 24.526zm150.007-214.923v-62c0-11.046-8.954-20-20-20h-20c-11.046 0-20 8.954-20 20s8.954 20 20 20v42c0 11.046 8.954 20 20 20s20-8.954 20-20z" fill="#34d07e" data-original="#ff5cf0" style="" class=""/></g></g></svg>
