<?xml version="1.0"?>
<svg xmlns="http://www.w3.org/2000/svg" xmlns:xlink="http://www.w3.org/1999/xlink" xmlns:svgjs="http://svgjs.com/svgjs" version="1.1" width="512" height="512" x="0" y="0" viewBox="0 0 512 512" style="enable-background:new 0 0 512 512" xml:space="preserve" class=""><g><g xmlns="http://www.w3.org/2000/svg"><path d="m181.285 491.972h-61.285c-55.229 0-100-44.771-100-100v-204.236c0-26.521 10.536-51.957 29.29-70.711l67.764-67.765c38.366-38.366 100.149-39.037 139.338-2.02-27.979-2.046-56.655 7.626-78.049 29.02l-86.51 86.51c-6.75 6.752-9.833 15.909-9.833 25.456v203.745c0 55.228 44.059 99.998 99.285 100.001zm210.715-210c0-20.981 20.686-38.933 50-46.352-9.267-2.345-19.388-3.648-30-3.648-44.183 0-80 22.386-80 50s35.817 50 80 50c10.612 0 20.733-1.303 30-3.648-29.314-7.42-50-25.371-50-46.352z" fill="#f9f9f9" data-original="#cee1f2" style=""/><path d="m412 351.972c-56.075 0-100-30.748-100-70s43.925-70 100-70 100 30.748 100 70-43.925 70-100 70zm0-100c-17.414 0-34.169 4.229-45.969 11.604-8.917 5.573-14.031 12.278-14.031 18.396s5.114 12.822 14.031 18.396c11.8 7.375 28.555 11.604 45.969 11.604s34.169-4.229 45.969-11.604c8.917-5.573 14.031-12.278 14.031-18.396s-5.114-12.822-14.031-18.396c-11.8-7.375-28.555-11.604-45.969-11.604zm-137 240c0-11.046-8.954-20-20-20h-135c-44.112 0-80-35.888-80-80v-204.236c0-21.368 8.321-41.458 23.432-56.568l67.764-67.765c31.193-31.192 81.946-31.191 113.083-.056l67.29 67.819c9.735 9.736 16.828 21.894 20.513 35.157 2.956 10.643 13.98 16.872 24.623 13.918 10.643-2.956 16.874-13.98 13.918-24.623-5.527-19.896-16.166-38.132-30.714-52.681l-67.291-67.82c-46.787-46.787-122.917-46.785-169.706 0l-67.765 67.766c-22.665 22.667-35.147 52.8-35.147 84.853v204.235c0 66.168 53.832 120 120 120h135c11.046.001 20-8.954 20-19.999zm-87-356c-13.807 0-25 11.193-25 25s11.193 25 25 25 25-11.193 25-25-11.193-25-25-25z" fill="#ffffff" data-original="#1428bf" style="" class=""/><path d="m411 511.972c-34.4 0-66.978-9.874-91.731-27.802-8.946-6.479-10.945-18.984-4.467-27.93 6.48-8.946 18.985-10.945 27.93-4.467 37.006 26.803 99.531 26.803 136.537 0 8.947-6.48 21.451-4.479 27.93 4.467 6.479 8.945 4.479 21.45-4.467 27.93-24.754 17.928-57.332 27.802-91.732 27.802zm91.731-107.802c8.946-6.479 10.945-18.984 4.467-27.93-6.479-8.946-18.982-10.946-27.93-4.467-37.006 26.803-99.531 26.803-136.537 0-8.944-6.479-21.449-4.479-27.93 4.467-6.479 8.945-4.479 21.45 4.467 27.93 24.754 17.928 57.331 27.802 91.731 27.802s66.979-9.874 91.732-27.802z" fill="#f1f1f1" data-original="#ff5cf0" style="" class=""/></g></g></svg>
