<?xml version="1.0"?>
<svg xmlns="http://www.w3.org/2000/svg" xmlns:xlink="http://www.w3.org/1999/xlink" xmlns:svgjs="http://svgjs.com/svgjs" version="1.1" width="512" height="512" x="0" y="0" viewBox="0 0 512.105 512.105" style="enable-background:new 0 0 512 512" xml:space="preserve" class=""><g><g xmlns="http://www.w3.org/2000/svg"><path d="m222.77 344.723-17.725 101.329-23.335 36.741c-13.529 18.866-43.333 6.622-39.612-16.273l26.906-165.468h16.041c23.264 0 41.106 20.653 37.725 43.671zm-111.629-30.23c-20.25-12.493-28.22-40.429-12.469-62.395l100.373-160.046 8.337-46.486c3.699-22.889-26.092-35.113-39.614-16.255l-139.397 222.787c-20.934 29.193.017 68.954 36.033 68.954h45.142c.484-2.197 1.011-4.385 1.595-6.559z" fill="#cee1f2" data-original="#cee1f2" style=""/><path d="m164.204 512.105c-5.458 0-11.024-1.081-16.441-3.317-18.382-7.591-28.592-25.866-25.405-45.476l20.126-122.26h-78.08c-24.369 0-46.339-13.306-57.336-34.725-10.756-20.948-8.96-45.913 4.652-65.323l139.093-222.302c.223-.356.457-.705.702-1.046 11.599-16.177 31.767-21.942 50.182-14.346 18.379 7.579 28.598 25.843 25.43 45.446l-20.481 123.202h77.4c24.491 0 46.505 13.242 57.449 34.56 10.775 20.986 8.989 45.121-4.749 64.704l-138.049 222.128c-.232.374-.477.74-.733 1.099-8.193 11.423-20.658 17.655-33.76 17.656zm20.093-471.506s-139.428 222.813-139.673 223.154c-7.602 10.6-3.912 20.527-1.973 24.304 4.178 8.137 12.31 12.995 21.752 12.995h101.642c5.872 0 11.447 2.581 15.247 7.058 3.801 4.477 5.441 10.396 4.487 16.191l-23.946 145.468c-.129.795-.236 1.454 1.197 2.047 1.202.494 1.729.189 2.139-.297l137.922-221.924c.232-.374.477-.74.733-1.099 7.5-10.459 3.958-20.064 2.087-23.709-4.125-8.033-12.299-12.829-21.866-12.829h-101c-5.878 0-11.458-2.586-15.258-7.069-3.8-4.484-5.436-10.412-4.472-16.211l24.337-146.393c.121-.746.228-1.406-1.206-1.997-1.214-.5-1.739-.183-2.149.311z" fill="#28a745" data-original="#0023c4" style="" class=""/><path d="m390.029 318.054c-4.053 0-8.143-1.228-11.681-3.779-8.96-6.46-10.985-18.961-4.525-27.92l97.02-134.551c.483-.674 2.028-2.825.648-5.515-.499-.974-2.081-3.237-5.978-3.237h-72.468c-5.851 0-11.407-2.562-15.207-7.01s-5.461-10.337-4.548-16.115l9.34-59.038-48.298 67.771c-6.411 8.997-18.9 11.09-27.895 4.68s-11.09-18.899-4.68-27.895l65.187-91.469c9.061-12.621 25.354-17.268 39.664-11.362 14.276 5.895 22.526 20.647 20.062 35.877l-10.213 64.562h49.056c17.734 0 33.661 9.57 41.566 24.977 7.731 15.068 6.288 33.13-3.768 47.137l-97.044 134.584c-3.908 5.419-10.029 8.303-16.238 8.303z" fill="#2ae089" data-original="#ff5cf3" style="" class=""/></g></g></svg>
