<?xml version="1.0"?>
<svg xmlns="http://www.w3.org/2000/svg" xmlns:xlink="http://www.w3.org/1999/xlink" xmlns:svgjs="http://svgjs.com/svgjs" version="1.1" width="512" height="512" x="0" y="0" viewBox="0 0 512 512" style="enable-background:new 0 0 512 512" xml:space="preserve" class=""><g><g xmlns="http://www.w3.org/2000/svg"><path d="m256 120.013c-75.111 0-136 60.889-136 136v.005c0 46.09 22.928 86.826 58 111.423 0 0 12.392-6.405 15.958-9.223-14.497-21.624-22.958-47.634-22.958-75.623v-.005c0-75.111 60.889-136 136-136 12.421 0 24.449 1.674 35.881 4.793-23.563-19.587-53.845-31.37-86.881-31.37z" fill="#cee1f2" data-original="#cee1f2" style="" class=""/><path d="m492 276.013h-20c-11.046 0-20-8.954-20-20s8.954-20 20-20h20c11.046 0 20 8.954 20 20s-8.954 20-20 20zm-432-20c0-11.046-8.954-20-20-20h-20c-11.046 0-20 8.954-20 20s8.954 20 20 20h20c11.046 0 20-8.954 20-20zm325.833-173.779 10.442-17.058c5.767-9.421 2.805-21.732-6.615-27.5-9.421-5.767-21.733-2.805-27.5 6.615l-10.442 17.058c-5.767 9.421-2.805 21.732 6.615 27.5 3.259 1.995 6.863 2.945 10.423 2.945 6.732 0 13.305-3.399 17.077-9.56zm-227.844 4.044c9.565-5.523 12.842-17.755 7.318-27.32l-10.001-17.319c-5.523-9.567-17.756-12.845-27.321-7.318-9.565 5.523-12.842 17.755-7.318 27.32l10.001 17.319c3.705 6.416 10.427 10.002 17.338 10.002 3.393-.001 6.833-.865 9.983-2.684zm320.95 295.341c5.42-9.625 2.011-21.82-7.613-27.24l-17.427-9.813c-9.625-5.42-21.82-2.011-27.24 7.613-5.42 9.625-2.011 21.82 7.613 27.24l17.427 9.813c3.102 1.747 6.472 2.577 9.795 2.577 6.988 0 13.773-3.668 17.445-10.19zm-393.85-221.779c5.42-9.625 2.011-21.82-7.613-27.24l-17.427-9.813c-9.625-5.42-21.821-2.011-27.24 7.613-5.42 9.625-2.011 21.82 7.613 27.24l17.427 9.813c3.103 1.747 6.472 2.577 9.795 2.577 6.988.001 13.773-3.667 17.445-10.19zm369.182 8.451 17.468-9.739c9.647-5.379 13.108-17.561 7.729-27.208-5.378-9.647-17.56-13.106-27.208-7.729l-17.468 9.739c-9.647 5.379-13.108 17.561-7.729 27.208 3.66 6.564 10.469 10.265 17.486 10.265 3.297-.001 6.639-.818 9.722-2.536zm-181.271-128.269v-19.999c0-11.046-8.954-20-20-20s-20 8.954-20 20v19.999c0 11.046 8.954 20 20 20s20-8.954 20-20zm-213.772 347.996 17.487-9.705c9.658-5.36 13.143-17.534 7.782-27.192-5.36-9.659-17.534-13.143-27.192-7.782l-17.487 9.705c-9.658 5.36-13.143 17.534-7.782 27.192 3.654 6.584 10.474 10.299 17.505 10.299 3.283 0 6.613-.811 9.687-2.517zm135.147-9.094c6.342-9.043 4.152-21.516-4.891-27.858-30.985-21.73-49.484-57.262-49.484-95.053 0-63.963 52.038-116 116-116s116 52.037 116 116.005c0 36.94-16.995 70.83-46.628 92.98-8.847 6.613-10.658 19.146-4.045 27.994 6.613 8.847 19.147 10.659 27.993 4.045 19.023-14.22 34.789-32.883 45.594-53.972 11.178-21.815 17.086-46.384 17.086-71.052 0-86.019-69.981-156-156-156s-156 69.981-156 156.005c0 50.813 24.866 98.587 66.516 127.798 3.495 2.45 7.5 3.627 11.466 3.627 6.3-.001 12.501-2.97 16.393-8.519z" fill="#0086c4" data-original="#0023c4" style="" class=""/><path d="m256.48 511.977c-16.645 0-33.283-6.336-45.95-19.002l-31.705-31.853c-7.792-7.829-7.763-20.492.065-28.284 7.83-7.794 20.494-7.762 28.284.065l31.672 31.819c9.712 9.712 25.571 9.714 35.318-.027l31.664-31.796c7.794-7.827 20.457-7.852 28.284-.058s7.853 20.457.059 28.284l-31.697 31.828c-12.689 12.684-29.345 19.024-45.994 19.024zm20.52-93.964v-92c0-11.046-8.954-20-20-20s-20 8.954-20 20v92c0 11.046 8.954 20 20 20s20-8.954 20-20z" fill="#0ca5c6" data-original="#ff5cf3" style="" class=""/></g></g></svg>
