<?xml version="1.0"?>
<svg xmlns="http://www.w3.org/2000/svg" xmlns:xlink="http://www.w3.org/1999/xlink" xmlns:svgjs="http://svgjs.com/svgjs" version="1.1" width="512" height="512" x="0" y="0" viewBox="0 0 512 512" style="enable-background:new 0 0 512 512" xml:space="preserve" class=""><g><g xmlns="http://www.w3.org/2000/svg"><path d="m406.501 166.352c-9.267 2.345-19.388 3.648-30 3.648-44.183 0-80-22.386-80-50s35.817-50 80-50c10.612 0 20.733 1.303 30 3.648-29.314 7.419-50 25.37-50 46.352s20.686 38.933 50 46.352zm-290 115.648c0-20.981 20.687-38.933 50-46.352-9.267-2.345-19.387-3.648-30-3.648-44.183 0-80 22.386-80 50s35.817 50 80 50c10.613 0 20.733-1.303 30-3.648-29.314-7.419-50-25.371-50-46.352z" fill="#ffffff" data-original="#cee1f2" style=""/><path d="m376.501 190c-56.075 0-100-30.748-100-70s43.925-70 100-70 100 30.748 100 70-43.925 70-100 70zm0-100c-17.414 0-34.169 4.229-45.969 11.604-8.917 5.573-14.031 12.278-14.031 18.396s5.114 12.822 14.031 18.396c11.8 7.375 28.555 11.604 45.969 11.604s34.169-4.229 45.969-11.604c8.917-5.573 14.031-12.278 14.031-18.396s-5.114-12.822-14.031-18.396c-11.8-7.375-28.555-11.604-45.969-11.604zm90.731 394.198c8.946-6.479 10.945-18.983 4.467-27.929-6.479-8.946-18.983-10.946-27.93-4.466-37.006 26.802-99.531 26.802-136.537 0-8.945-6.479-21.45-4.48-27.93 4.466-6.479 8.946-4.479 21.45 4.467 27.929 24.754 17.928 57.331 27.802 91.732 27.802s66.977-9.874 91.731-27.802zm0-80c8.946-6.479 10.945-18.983 4.467-27.929s-18.983-10.946-27.93-4.466c-37.006 26.802-99.531 26.802-136.537 0-8.945-6.479-21.45-4.48-27.93 4.466-6.479 8.946-4.479 21.45 4.467 27.929 24.754 17.928 57.331 27.802 91.732 27.802s66.977-9.874 91.731-27.802zm0-81c8.946-6.479 10.945-18.983 4.467-27.929s-18.983-10.946-27.93-4.466c-37.006 26.802-99.531 26.802-136.537 0-8.945-6.48-21.45-4.48-27.93 4.466-6.479 8.946-4.479 21.45 4.467 27.929 24.754 17.928 57.331 27.802 91.732 27.802s66.977-9.874 91.731-27.802zm0-81c8.946-6.479 10.945-18.983 4.467-27.929s-18.983-10.946-27.93-4.466c-37.006 26.802-99.531 26.802-136.537 0-8.945-6.479-21.45-4.48-27.93 4.466-6.479 8.946-4.479 21.45 4.467 27.929 24.754 17.928 57.331 27.802 91.732 27.802s66.977-9.874 91.731-27.802zm-330.731 109.802c-56.075 0-100-30.748-100-70s43.925-70 100-70 100 30.748 100 70-43.925 70-100 70zm0-100c-17.414 0-34.169 4.229-45.969 11.604-8.917 5.573-14.031 12.278-14.031 18.396s5.114 12.822 14.031 18.396c11.8 7.375 28.555 11.604 45.969 11.604s34.169-4.229 45.969-11.604c8.917-5.573 14.031-12.278 14.031-18.396s-5.114-12.822-14.031-18.396c-11.8-7.375-28.555-11.604-45.969-11.604zm90.731 232.198c8.946-6.479 10.945-18.983 4.467-27.929-6.479-8.946-18.983-10.946-27.93-4.466-37.006 26.802-99.531 26.802-136.537 0-8.945-6.479-21.449-4.48-27.93 4.466-6.479 8.946-4.479 21.45 4.467 27.929 24.754 17.928 57.331 27.802 91.732 27.802s66.977-9.874 91.731-27.802zm0-80c8.946-6.479 10.945-18.983 4.467-27.929s-18.983-10.946-27.93-4.466c-37.006 26.802-99.531 26.802-136.537 0-8.945-6.479-21.449-4.48-27.93 4.466-6.479 8.946-4.479 21.45 4.467 27.929 24.754 17.928 57.331 27.802 91.732 27.802s66.977-9.874 91.731-27.802z" fill="#ffffff" data-original="#1428bf" style="" class=""/><path d="m70.5 92c-5.05 0-10.102-1.9-13.993-5.712-7.892-7.729-8.023-20.392-.294-28.283l39.461-40.289c.041-.042.083-.084.124-.126 11.308-11.342 26.35-17.59 42.351-17.59 16.001 0 31.041 6.248 42.35 17.591l40.166 40.289c7.798 7.823 7.779 20.486-.044 28.284-7.82 7.797-20.485 7.78-28.284-.043l-40.166-40.289c-3.749-3.761-8.729-5.832-14.022-5.832-5.271 0-10.23 2.052-13.974 5.781l-39.386 40.214c-3.917 3.999-9.102 6.005-14.289 6.005zm86.001 70v-63c0-11.046-8.954-20-20-20s-20 8.954-20 20v63c0 11.046 8.954 20 20 20s20-8.954 20-20z" fill="#ffffff" data-original="#ff5cf0" style="" class=""/></g></g></svg>
