<svg id="Layer_1" enable-background="new 0 0 512 512" height="512" viewBox="0 0 512 512" width="512" xmlns="http://www.w3.org/2000/svg"><g><path d="m455.835 346.86 31.597-10.205.007.005c6.538-22.083 10.065-45.46 10.065-69.663 0-135.311-109.691-245.002-245.002-245.002s-245.003 109.692-245.003 245.003c0 27.964 4.697 54.829 13.325 79.862z" fill="#f964b2"/><path d="m483.679 343.901v-264.651h-462.855v267.61c33.12 96.097 124.33 165.14 231.677 165.14 78.14 0 147.721-36.589 192.576-93.563z" fill="#e9efff"/><path d="m20.824 346.86c20.128 58.4 61.713 106.805 115.332 135.797-16.515-35.055 6.291-68.927 6.291-68.927v-15c-12.291-12.292-1.418-25.411-1.418-25.411l-33.63-258.802c-17.006-17.006 0-33.268 0-33.268-1.473-.603-2.773-1.278-3.95-2h-82.625z" fill="#d3dcfb"/><path d="m135.179 51.47c0 16.447-13.333 29.78-29.78 29.78h378.28v-29.78z" fill="#d3dcfb"/><path d="m20.824 51.47v29.78h86.575c16.447 0 29.78-13.333 29.78-29.78z" fill="#4fabf7"/><path d="m95.83 53.25c-.591-.591-1.082-1.186-1.504-1.78h-73.502v29.78h86.575c-19.714-8.064-11.569-28-11.569-28z" fill="#1886ea"/><path d="m466.636 0h-428.769c-9.412 0-17.043 7.63-17.043 17.043v36.207h462.855v-36.207c0-9.413-7.63-17.043-17.043-17.043z" fill="#3c58a0"/><path d="m95.83 0h-57.963c-9.412 0-17.043 7.63-17.043 17.043v36.207h75.006c-7.757-7.757 0-16.123 0-16.123v-21.004c-8.238-8.238 0-16.123 0-16.123z" fill="#2a428c"/><circle cx="64.983" cy="26.625" fill="#ff4155" r="10.502"/><circle cx="95.83" cy="26.625" fill="#ffdd40" r="10.502"/><circle cx="126.677" cy="26.625" fill="#4ce088" r="10.502"/><g><path d="m389.254 34.125h-221.553c-4.142 0-7.5-3.357-7.5-7.5s3.358-7.5 7.5-7.5h221.552c4.142 0 7.5 3.357 7.5 7.5.001 4.143-3.357 7.5-7.499 7.5z" fill="#1c2e7a"/></g><g><path d="m443.301 34.125h-19.119c-4.142 0-7.5-3.357-7.5-7.5s3.358-7.5 7.5-7.5h19.119c4.142 0 7.5 3.357 7.5 7.5s-3.357 7.5-7.5 7.5z" fill="#1c2e7a"/></g><path d="m288.341 114.518h-219.551c-7.418 0-13.431 6.013-13.431 13.432v221.247l60.769-85.842c10.279-14.52 31.824-14.52 42.103 0l39.239 55.428c1.879 2.654 5.816 2.654 7.695 0l8.003-11.305c9.507-13.43 29.436-13.43 38.943 0l44.555 62.938c3.107-2.46 5.107-6.257 5.107-10.528v-231.938c0-7.419-6.014-13.432-13.432-13.432z" fill="#d3dcfb"/><g><path d="m137.179 127.95c0-7.418 6.013-13.432 13.431-13.432h-81.82c-7.418 0-13.431 6.013-13.431 13.432v221.247l60.769-85.842c5.14-7.26 13.096-10.89 21.052-10.89v-124.515z" fill="#bec8f7"/></g><path d="m252.111 305.478c-9.507-13.43-29.436-13.43-38.943 0l-8.003 11.305c-1.879 2.654-5.816 2.654-7.695 0l-39.239-55.429c-10.279-14.52-31.824-14.52-42.103 0l-60.769 85.842v12.692c0 7.418 6.014 13.432 13.432 13.432h219.552c3.565 0 6.797-1.398 9.201-3.665z" fill="#bec8f7"/><circle cx="213.983" cy="215.995" fill="#bec8f7" r="26.473"/><path d="m487.431 336.656h-141.09c-6.649 0-12.09 5.44-12.09 12.09v57.629c0 6.649 5.44 12.09 12.09 12.09 1.7 0 2.642 1.952 1.602 3.297-1.107 1.433-2.349 2.768-3.727 3.982-2.571 2.265-1.125 6.908 2.136 6.898 8.287-.026 16.053-4.232 21.339-11.083 1.486-1.926 3.747-3.094 6.178-3.094h71.193c18.937-24.044 33.461-51.718 42.369-81.809z" fill="#4fabf7"/><path d="m492.411 219.087h-146.07c-6.649 0-12.09 5.44-12.09 12.09v57.629c0 6.649 5.44 12.09 12.09 12.09 1.7 0 2.642 1.952 1.602 3.297-1.107 1.433-2.349 2.768-3.727 3.982-2.571 2.265-1.125 6.908 2.136 6.898 8.287-.026 16.053-4.232 21.339-11.083 1.486-1.926 3.746-3.094 6.178-3.094h118.541c6.649 0 12.09-5.441 12.09-12.09v-57.629c.001-6.65-5.439-12.09-12.089-12.09z" fill="#4fabf7"/><path d="m386.751 406.375v-57.629c0-6.65 5.44-12.09 12.09-12.09h-52.5c-6.649 0-12.09 5.44-12.09 12.09v57.629c0 6.649 5.44 12.09 12.09 12.09 1.7 0 2.642 1.952 1.602 3.297-1.107 1.433-2.349 2.768-3.727 3.982-2.571 2.265-1.125 6.908 2.136 6.898 8.287-.026 16.053-4.232 21.339-11.083 1.486-1.926 3.747-3.094 6.178-3.094h24.971c-6.648 0-12.089-5.441-12.089-12.09z" fill="#1886ea"/><path d="m386.752 288.806v-57.629c0-6.65 5.44-12.09 12.09-12.09h-52.5c-6.649 0-12.09 5.44-12.09 12.09v57.629c0 6.649 5.44 12.09 12.09 12.09 1.7 0 2.642 1.952 1.602 3.297-1.107 1.433-2.349 2.768-3.727 3.982-2.571 2.265-1.125 6.908 2.136 6.898 8.287-.026 16.053-4.232 21.339-11.083 1.486-1.925 3.747-3.093 6.178-3.093h24.971c-6.649-.001-12.089-5.442-12.089-12.091z" fill="#1886ea"/><g><path d="m142.447 413.731h-2.837c-4.142 0-7.5-3.357-7.5-7.5s3.358-7.5 7.5-7.5h2.837c4.142 0 7.5 3.357 7.5 7.5 0 4.142-3.357 7.5-7.5 7.5z" fill="#73c3f9"/></g><g><path d="m177.869 413.731h-2.837c-4.142 0-7.5-3.357-7.5-7.5s3.358-7.5 7.5-7.5h2.837c4.142 0 7.5 3.357 7.5 7.5 0 4.142-3.358 7.5-7.5 7.5z" fill="#bec8f7"/></g><g><path d="m213.29 413.731h-2.837c-4.142 0-7.5-3.357-7.5-7.5s3.358-7.5 7.5-7.5h2.837c4.142 0 7.5 3.357 7.5 7.5 0 4.142-3.358 7.5-7.5 7.5z" fill="#bec8f7"/></g><g><path d="m428.376 372.352h-54c-4.142 0-7.5-3.357-7.5-7.5s3.358-7.5 7.5-7.5h54c4.142 0 7.5 3.357 7.5 7.5 0 4.142-3.358 7.5-7.5 7.5z" fill="#e9efff"/></g><path d="m467.461 384.596c-.942-.426-1.984-.669-3.084-.669h-90c-4.142 0-7.5 3.357-7.5 7.5s3.358 7.5 7.5 7.5h84.58c2.991-4.671 5.828-9.449 8.504-14.331z" fill="#73c3f9"/><g><path d="m428.376 254.782h-54c-4.142 0-7.5-3.357-7.5-7.5s3.358-7.5 7.5-7.5h54c4.142 0 7.5 3.357 7.5 7.5s-3.358 7.5-7.5 7.5z" fill="#e9efff"/></g><g><path d="m464.376 281.359h-90c-4.142 0-7.5-3.357-7.5-7.5s3.358-7.5 7.5-7.5h90c4.142 0 7.5 3.357 7.5 7.5s-3.358 7.5-7.5 7.5z" fill="#73c3f9"/></g><g><path d="m392.376 131.456h-54c-4.142 0-7.5-3.357-7.5-7.5s3.358-7.5 7.5-7.5h54c4.142 0 7.5 3.357 7.5 7.5s-3.358 7.5-7.5 7.5z" fill="#ff4155"/></g><g><path d="m448.335 159.731h-109.959c-4.142 0-7.5-3.357-7.5-7.5s3.358-7.5 7.5-7.5h109.958c4.142 0 7.5 3.357 7.5 7.5.001 4.142-3.357 7.5-7.499 7.5z" fill="#bec8f7"/></g><g><path d="m448.335 188.004h-109.959c-4.142 0-7.5-3.357-7.5-7.5s3.358-7.5 7.5-7.5h109.958c4.142 0 7.5 3.357 7.5 7.5.001 4.143-3.357 7.5-7.499 7.5z" fill="#bec8f7"/></g><path d="m137.28 353.315s0-51 0-72.361 20.95-19.599 20.95-19.599c-10.279-14.519-31.824-14.519-42.103 0l-60.769 85.842v12.692c0 7.418 6.013 13.432 13.431 13.432h72.239c-4.33-4.332-3.748-20.006-3.748-20.006z" fill="#a3b3ef"/></g></svg>