<?xml version="1.0"?>
<svg xmlns="http://www.w3.org/2000/svg" xmlns:xlink="http://www.w3.org/1999/xlink" xmlns:svgjs="http://svgjs.com/svgjs" version="1.1" width="512" height="512" x="0" y="0" viewBox="0 0 512.024 512.024" style="enable-background:new 0 0 512 512" xml:space="preserve" class=""><g><g xmlns="http://www.w3.org/2000/svg"><path d="m195.941 463.778c-13.994-67.046-59.976-117.009-87.24-184.96-33.68-83.941-18.071-170.143-9.106-219.58 1.136-18.368-10.038-35.151-28.154-38.552l-.385-.072c-18.769-3.521-36.912 8.689-40.638 27.413-9.506 47.778-20.602 136.607 7.354 228.793 20.073 66.189 79.141 126.266 95.903 184.96 5.052 17.692 21.229 30.229 39.633 30.229 14.717 0 18.905-8.052 26.196-19.615-1.485-2.688-2.916-5.513-3.563-8.616z" fill="#cee1f2" data-original="#cee1f2" style=""/><path d="m493.392 282.625c-11.021 36.341-32.311 69.768-52.899 102.094-24.417 38.338-47.48 74.55-47.48 107.29 0 11.046-8.954 20-20 20s-20-8.954-20-20c0-44.396 26.104-85.384 53.742-128.778 19.14-30.051 38.931-61.124 48.358-92.215 25.186-83.045 17.644-164.968 6.882-219.069-1.579-7.937-9.359-13.176-17.335-11.675l-.394.074c-8.877 1.666-12.377 10.396-11.87 17.802.293 4.269.713 9.101 1.199 14.695 4.548 52.271 13.012 149.566-43.646 239.806-.543.865-3.252 4.81-4.014 6.02-5.888 9.346-18.236 12.148-27.582 6.264-9.346-5.887-12.15-18.235-6.264-27.581 12.409-19.703 18.546-37.629 17.747-51.841-.453-8.056-3.211-14.645-7.766-18.55-3.714-3.185-8.489-4.519-14.198-3.964-7.354.715-11.696 5.263-14.043 8.952-1.502 2.361-2.669 6.628-3.905 11.146-.332 1.212-.666 2.431-1.013 3.65-15.661 55.005-39.792 87.751-59.182 114.063-13.606 18.466-25.376 34.437-31.486 54.155-2.445 10.461-3.499 21.439-3.313 34.486.235 16.56-6.096 32.232-17.829 44.134-11.715 11.883-27.269 18.428-43.794 18.428-27.137 0-51.343-18.396-58.864-44.737-7.448-26.081-24.909-53.687-43.396-82.911-20.364-32.194-41.422-65.485-52.415-101.735-27.589-90.983-19.486-179.918-7.83-238.504 5.834-29.322 34.522-48.681 63.94-43.167l.381.071c27.756 5.21 46.43 30.381 44.411 59.852-.313 4.583-.762 9.758-1.235 15.237-2.546 29.415-6.439 74.48 2.632 123.249.965-.954 1.951-1.887 2.983-2.772 11.955-10.252 27.619-15.016 44.106-13.413 17.993 1.75 34.003 11.699 43.924 27.297 4.74 7.452 6.864 15.211 8.737 22.056.295 1.08.592 2.165.901 3.251 3.384 11.885 7.694 22.611 11.849 32.43 4.303 10.173-.455 21.908-10.628 26.212-10.172 4.302-21.908-.455-26.212-10.628-4.429-10.47-9.493-23.06-13.479-37.059-.347-1.218-.681-2.437-1.013-3.649-1.236-4.518-2.403-8.785-3.905-11.146-2.347-3.689-6.688-8.237-14.043-8.952-5.709-.555-10.483.779-14.198 3.964-4.555 3.906-7.312 10.494-7.765 18.551-.792 14.076 5.394 32.002 17.889 51.84 5.887 9.347 3.082 21.695-6.264 27.582-3.311 2.085-6.998 3.08-10.641 3.08-6.643 0-13.14-3.308-16.941-9.344-.762-1.209-3.471-5.154-4.015-6.02-56.717-90.336-48.294-187.68-43.768-239.977.479-5.525.892-10.297 1.181-14.522.507-7.406-2.993-16.136-11.877-17.804l-.379-.071c-7.994-1.502-15.763 3.732-17.34 11.657-10.764 54.104-18.309 136.031 6.879 219.087 9.419 31.06 29.003 62.02 47.941 91.96 20.068 31.728 39.023 61.695 48.054 93.312 2.643 9.257 11.032 15.721 20.401 15.721 5.733 0 11.171-2.312 15.31-6.51 4.156-4.216 6.399-9.714 6.317-15.481-.238-16.706 1.206-30.988 4.545-44.947.093-.388.196-.771.312-1.152 8.057-26.563 22.474-46.128 37.737-66.841 19.287-26.174 39.23-53.237 52.912-101.289.31-1.087.606-2.173.901-3.253 1.874-6.845 3.997-14.604 8.737-22.057 9.921-15.598 25.931-25.547 43.924-27.296 16.485-1.602 32.15 3.161 44.105 13.412 1.062.911 2.075 1.872 3.065 2.855 9.04-48.718 5.129-93.748 2.571-123.141-.482-5.55-.938-10.792-1.256-15.428-2.019-29.471 16.655-54.642 44.404-59.851l.393-.074c29.42-5.521 58.104 13.851 63.939 43.187 11.655 58.582 19.755 147.511-7.832 238.482zm-237.38-137.617c13.807 0 25-11.193 25-25s-11.193-25-25-25-25 11.193-25 25 11.193 25 25 25z" fill="#09a654" data-original="#0023c4" style="" class=""/><path d="m339.012 145.008c-11.046 0-20-8.954-20-20v-31.197c0-8.116-3.839-15.918-10.269-20.871l-35.625-27.438c-9.573-7.303-23.04-7.323-32.709-.003l-36.276 28.351c-6.432 5.027-10.121 12.592-10.121 20.756v30.401c0 11.046-8.954 20-20 20s-20-8.954-20-20v-30.4c0-20.56 9.291-39.612 25.49-52.273l36.384-28.435c.062-.048.124-.096.187-.144 23.957-18.273 57.422-18.273 81.379 0l35.699 27.495c16.193 12.472 25.861 32.121 25.861 52.561v31.198c0 11.045-8.954 19.999-20 19.999z" fill="#05e06d" data-original="#ff5cf7" style="" class=""/></g></g></svg>
