<?xml version="1.0"?>
<svg xmlns="http://www.w3.org/2000/svg" xmlns:xlink="http://www.w3.org/1999/xlink" xmlns:svgjs="http://svgjs.com/svgjs" version="1.1" width="512" height="512" x="0" y="0" viewBox="0 0 512 512" style="enable-background:new 0 0 512 512" xml:space="preserve" class=""><g><g xmlns="http://www.w3.org/2000/svg"><path d="m80 370.998c0-22.091 17.909-40 40-40h-60c-22.091 0-40 17.909-40 40 0 22.091 17.909 40 40 40h60c-22.091 0-40-17.909-40-40z" fill="#cee1f2" data-original="#cee1f2" style=""/><path d="m354 511.998h-173c-11.046 0-20-8.954-20-20s8.954-20 20-20h173c11.028 0 20-8.972 20-20s-8.972-20-20-20h-294c-33.084 0-60-26.916-60-60s26.916-60 60-60h432c11.046 0 20 8.954 20 20s-8.954 20-20 20h-432c-11.028 0-20 8.972-20 20s8.972 20 20 20h294c33.084 0 60 26.916 60 60s-26.916 60-60 60zm31.833-429.785 10.442-17.058c5.767-9.421 2.806-21.733-6.615-27.5-9.42-5.767-21.732-2.806-27.5 6.615l-10.442 17.058c-5.767 9.421-2.806 21.733 6.615 27.5 3.259 1.995 6.863 2.945 10.424 2.945 6.731.001 13.304-3.398 17.076-9.56zm-227.845 4.045c9.565-5.523 12.843-17.755 7.319-27.321l-10.001-17.32c-5.523-9.566-17.756-12.841-27.321-7.319-9.565 5.523-12.843 17.755-7.319 27.321l10.001 17.32c3.705 6.416 10.427 10.002 17.339 10.002 3.393.001 6.833-.864 9.982-2.683zm-72.899 73.561c5.42-9.625 2.011-21.82-7.613-27.24l-17.427-9.813c-9.625-5.417-21.82-2.01-27.24 7.614-5.42 9.625-2.011 21.82 7.613 27.24l17.427 9.813c3.103 1.747 6.472 2.576 9.795 2.576 6.987 0 13.772-3.668 17.445-10.19zm369.182 8.451 17.469-9.74c9.647-5.379 13.108-17.56 7.729-27.208-5.378-9.646-17.56-13.108-27.208-7.729l-17.469 9.74c-9.647 5.379-13.108 17.56-7.729 27.208 3.66 6.564 10.47 10.264 17.487 10.264 3.296 0 6.638-.816 9.721-2.535zm-181.271-128.269v-19.999c0-11.046-8.954-20-20-20s-20 8.954-20 20v19.999c0 11.046 8.954 20 20 20s20-8.954 20-20zm239 215.997c0-11.046-8.954-20-20-20h-19.999c-11.046 0-20 8.954-20 20s8.954 20 20 20h19.999c11.046 0 20-8.955 20-20zm-452.001 0c0-11.046-8.954-20-20-20h-19.999c-11.046 0-20 8.954-20 20s8.954 20 20 20h19.999c11.046 0 20-8.955 20-20z" fill="#06ba64" data-original="#0023c4" style="" class=""/><path d="m392 275.995c-11.046 0-20-8.952-20-19.998v-.005c0-63.962-52.037-116-116-116s-116 52.038-116 116c0 11.046-8.954 20.002-20 20.002s-20-8.952-20-19.998c0-86.023 69.981-156.005 156-156.005s156 69.981 156 156c0 11.048-8.954 20.004-20 20.004z" fill="#2ae089" data-original="#ff5cf3" style="" class=""/></g></g></svg>
